<svg width="915" height="2159" viewBox="0 0 915 2159" fill="none" xmlns="http://www.w3.org/2000/svg">
<path d="M3.55371 2154C3.55371 2154 1078.22 1372.93 443.603 1076.54C-191.016 780.154 911.548 4.66268 911.548 4.66268" stroke="url(#paint0_linear)" stroke-width="11.1581"/>
<path fill-rule="evenodd" clip-rule="evenodd" d="M733.785 1958.54C740.334 1971.42 750.932 1981.52 764.567 1987.87C780.209 1995.16 798.281 1996.85 816.645 1992.74C821.684 1991.61 831.289 1988.11 836.011 1985.68C845.059 1981.03 852.792 1975.24 859.353 1968.22C878.336 1947.92 884.23 1920.8 874.648 1897.86C872.392 1892.45 872.596 1893.01 870.852 1887.43C863.855 1865.01 843.958 1848.56 818.295 1843.97C795.089 1839.82 770.008 1846.27 751.021 1861.28C732.31 1876.08 721.727 1897.28 722.327 1918.78C722.543 1926.54 723.888 1932.86 726.809 1939.85C728.941 1944.96 728.634 1944.13 730.958 1951.11C731.948 1954.09 733.221 1957.43 733.785 1958.54ZM728.902 1928.93C724.603 1909.59 731.133 1888.64 746.425 1872.71C754.061 1864.75 761.53 1859.55 772.085 1854.85C779.776 1851.42 789.112 1849.04 797.584 1848.35C810.658 1847.28 823.368 1849.44 834.651 1854.65C864.791 1868.55 876.638 1901.55 862.343 1931.76C851.224 1955.26 825.884 1972.18 798.445 1974.42C770.158 1976.73 745.004 1964.09 733.433 1941.74C731.944 1938.86 729.7 1932.52 728.902 1928.93ZM742.435 1962.1C742.667 1962.28 743.879 1963.26 745.126 1964.28C747.329 1966.09 747.415 1966.2 748.149 1968.29L748.905 1970.44L747.629 1969.14C745.015 1966.5 740.906 1960.93 742.435 1962.1ZM759.895 1973.3L764.865 1975.55L766.281 1979.47L767.698 1983.39L764.691 1981.93C763.038 1981.12 760.705 1979.83 759.507 1979.06L757.328 1977.65L756.126 1974.35L754.924 1971.04L759.895 1973.3ZM742.712 1933.06C742.995 1933.28 743.722 1933.48 744.329 1933.51C745.274 1933.55 745.546 1933.46 746.227 1932.83C747.259 1931.88 747.253 1930.93 746.196 1927.42C745.046 1923.6 744.223 1922.82 742.12 1923.59C740.94 1924.02 740.55 1924.45 740.416 1925.49C740.256 1926.73 742.008 1932.51 742.712 1933.06ZM750.204 1946.02C751.043 1947.28 754.899 1950.83 755.522 1950.92C757.536 1951.21 759.16 1949.35 758.495 1947.53C758.099 1946.44 754.116 1942.29 753.126 1941.94C751.016 1941.18 748.925 1944.11 750.204 1946.02ZM740.84 1912.54C741.662 1913.01 742.109 1913.06 742.934 1912.76C743.511 1912.55 744.13 1912.14 744.31 1911.86C744.696 1911.25 745.711 1905.55 745.61 1904.57C745.506 1903.57 744.197 1902.52 743.06 1902.54C741.007 1902.57 740.165 1904.22 739.556 1909.42C739.343 1911.25 739.572 1911.81 740.84 1912.54ZM774.51 1978.15C776.271 1978.53 778.961 1979.02 780.487 1979.24L783.261 1979.64L784.932 1984.22C785.851 1986.73 786.536 1988.82 786.454 1988.85C786.136 1988.96 779.939 1987.64 777.267 1986.89L774.447 1986.09L772.877 1981.78L771.307 1977.47L774.51 1978.15ZM767.219 1958.74C768.169 1959.77 773.737 1961.88 774.634 1961.55C776.211 1960.98 776.894 1959.56 776.345 1958.01C776.012 1957.07 775.687 1956.86 772.604 1955.59C769.691 1954.39 769.089 1954.25 768.216 1954.56C766.384 1955.23 765.889 1957.31 767.219 1958.74ZM747.729 1892.99C749.379 1893.76 750.384 1893.12 752.501 1889.94C754.583 1886.81 754.837 1885.72 753.761 1884.54C752.94 1883.65 751.862 1883.33 750.866 1883.7C750.077 1883.98 747.137 1887.94 746.447 1889.65C745.926 1890.94 746.494 1892.42 747.729 1892.99ZM789.598 1980.1C789.818 1980.08 791.666 1980.02 793.706 1979.98L797.414 1979.91L799.172 1984.74L800.93 1989.57L797.655 1989.56C795.853 1989.55 793.98 1989.54 793.492 1989.52L792.605 1989.5L790.902 1984.82C789.556 1981.12 789.283 1980.13 789.598 1980.1ZM788.129 1964.27C789.381 1964.85 794.232 1965 795.625 1964.5C797.494 1963.83 797.706 1960.9 795.959 1959.91C795.571 1959.69 793.745 1959.47 791.901 1959.43C788.914 1959.35 788.455 1959.42 787.715 1960C786.847 1960.68 786.463 1962.1 786.854 1963.18C786.974 1963.5 787.548 1964 788.129 1964.27ZM761.121 1877.04C762.41 1877.94 763.169 1877.72 766.088 1875.57C767.564 1874.48 768.962 1873.22 769.195 1872.78C769.807 1871.61 769.147 1869.94 767.831 1869.32C766.961 1868.92 766.681 1868.94 765.58 1869.5C763.46 1870.57 760.246 1873.21 760.016 1874.06C759.747 1875.07 760.254 1876.43 761.121 1877.04ZM803.776 1979.19C804.243 1979.15 806.035 1978.84 807.759 1978.51L810.893 1977.92L812.748 1982.77L814.602 1987.63L813.047 1987.98C812.192 1988.17 810.372 1988.51 809.002 1988.73L806.513 1989.12L804.72 1984.2L802.928 1979.27L803.776 1979.19ZM809.056 1962.09C810.045 1962.55 810.361 1962.52 813.149 1961.72C816.447 1960.76 817.325 1960.22 817.673 1958.92C818.01 1957.66 817.458 1956.58 816.18 1955.98C815.214 1955.53 814.842 1955.53 813.526 1956.01C812.684 1956.32 811.194 1956.77 810.214 1957.01C808.507 1957.44 808.41 1957.51 807.885 1958.64C807.165 1960.18 807.578 1961.4 809.056 1962.09ZM817.737 1975.98C818.726 1975.73 820.471 1975.19 821.615 1974.77L823.694 1974.02L825.387 1978.91L827.079 1983.8L825.421 1984.51C824.51 1984.89 822.814 1985.46 821.652 1985.77L819.541 1986.33L817.74 1981.38L815.938 1976.43L817.737 1975.98ZM779.847 1866.84C780.782 1867.19 781.291 1867.12 784.023 1866.3C787.526 1865.24 788.258 1864.72 788.407 1863.21C788.526 1862 787.712 1860.83 786.497 1860.47C785.769 1860.25 784.988 1860.41 782.245 1861.34L778.886 1862.48L778.49 1863.52C777.927 1865 778.474 1866.34 779.847 1866.84ZM831.349 1970.32C832.868 1969.55 834.435 1968.72 834.829 1968.48L835.546 1968.03L837.336 1972.95L839.126 1977.87L836.127 1979.5C834.478 1980.39 832.906 1981.2 832.634 1981.3C832.182 1981.46 831.986 1981.06 830.363 1976.6L828.586 1971.71L831.349 1970.32ZM827 1952.7C827.677 1953.51 828.939 1953.91 829.797 1953.6C830.811 1953.23 834.126 1950.92 835.197 1949.84C836.532 1948.48 836.092 1946.32 834.331 1945.58C833.253 1945.12 832.368 1945.47 829.564 1947.49C826.537 1949.66 825.763 1951.23 827 1952.7ZM799.344 1862.44C799.982 1863.14 800.9 1863.32 804.136 1863.37C807.282 1863.42 808.309 1863.1 808.921 1861.89C809.44 1860.86 808.984 1859.24 807.979 1858.53C807.11 1857.93 800.805 1857.77 799.966 1858.34C798.677 1859.21 798.352 1861.36 799.344 1862.44ZM840.542 1964.88C841.728 1964.01 846.091 1960.69 846.373 1960.44C846.664 1960.19 846.996 1960.9 848.474 1964.96C849.439 1967.62 850.193 1969.8 850.149 1969.82C850.105 1969.83 848.96 1970.73 847.605 1971.81C846.249 1972.9 844.821 1973.99 844.432 1974.25L843.725 1974.72L841.976 1969.91C840.665 1966.31 840.306 1965.05 840.542 1964.88ZM842.997 1938.88C844.648 1939.83 845.544 1939.31 847.711 1936.17C850.22 1932.53 850.346 1930.96 848.207 1929.96C846.496 1929.16 845.724 1929.61 843.684 1932.59C842.721 1934 841.808 1935.5 841.654 1935.92C841.256 1937.02 841.783 1938.18 842.997 1938.88ZM851.786 1955.53C852.585 1954.87 856.432 1950.61 858.068 1948.57L859.001 1947.41L860.621 1951.86L862.241 1956.32L860.35 1958.79C859.31 1960.15 857.568 1962.27 856.479 1963.5L854.499 1965.73L852.756 1960.94L851.014 1956.16L851.786 1955.53ZM819.904 1865.46C820.157 1865.74 821.808 1866.54 823.574 1867.24C826.287 1868.32 826.937 1868.46 827.779 1868.15C829.613 1867.48 830.029 1865.05 828.538 1863.72C828.274 1863.48 826.72 1862.76 825.083 1862.12C822.628 1861.16 821.936 1861.02 821.137 1861.31C819.423 1861.93 818.749 1864.2 819.904 1865.46ZM851.892 1920.05C854.343 1921.19 855.585 1919.66 856.281 1914.63C856.702 1911.59 856.483 1910.9 854.855 1910.14C853.724 1909.61 852.473 1910 851.794 1911.1C851.137 1912.16 850.178 1917.9 850.507 1918.81C850.659 1919.22 851.238 1919.74 851.892 1920.05ZM837.813 1875.99C838.888 1877.47 842.379 1880.69 843.003 1880.78C845.031 1881.07 846.629 1879.21 845.951 1877.35C845.486 1876.07 841.432 1871.99 840.497 1871.85C838.05 1871.5 836.4 1874.05 837.813 1875.99ZM863.635 1940.62C864.101 1939.85 865.23 1937.83 866.144 1936.12L867.805 1933L869.134 1936.66L870.464 1940.31L869.154 1943.62C868.433 1945.45 867.393 1947.72 866.843 1948.68L865.842 1950.42L864.315 1946.22L862.787 1942.02L863.635 1940.62ZM851.975 1899.26C853.388 1899.92 854.605 1899.54 855.345 1898.22C855.789 1897.43 855.795 1896.95 855.384 1895.26C854.501 1891.62 853.854 1890.11 852.94 1889.54C851.273 1888.51 849.008 1889.7 848.982 1891.62C848.975 1892.11 849.39 1893.91 849.904 1895.62L850.838 1898.73L851.975 1899.26ZM871.71 1921.53C872.233 1919.44 872.794 1916.78 872.958 1915.62C873.121 1914.46 873.32 1913.54 873.399 1913.58C873.479 1913.62 873.634 1915.3 873.745 1917.31C873.951 1921.06 873.667 1926.85 873.145 1929.55L872.852 1931.07L871.806 1928.2L870.76 1925.34L871.71 1921.53Z" fill="#A901D4"/>
<path fill-rule="evenodd" clip-rule="evenodd" d="M779.194 1928.43C780.69 1928.98 782.984 1929.8 784.291 1930.27C785.597 1930.73 787.941 1931.57 789.499 1932.14L792.331 1933.17L799.441 1930.58C806.328 1928.07 806.559 1927.98 806.847 1927.5C807.14 1927.01 807.116 1926.92 805.4 1922.2L803.654 1917.41L790.044 1922.36C782.558 1925.09 776.442 1927.34 776.454 1927.37C776.465 1927.41 777.698 1927.88 779.194 1928.43ZM809.936 1923.99C811.625 1920.81 815.642 1913.08 816.241 1911.85L816.765 1910.78L814.547 1904.69L812.328 1898.59L811.704 1898.35L811.079 1898.11L805.568 1900.12L800.057 1902.12L804.431 1914.12L808.804 1926.12L809.936 1923.99Z" fill="#A901D4"/>
<path fill-rule="evenodd" clip-rule="evenodd" d="M791.288 1919.53L791.926 1919.83L797.397 1917.84L802.868 1915.85L798.528 1903.79L794.189 1891.73L793.474 1893.13C791.932 1896.16 788.686 1902.41 787.485 1904.66L786.22 1907.03L788.435 1913.13L790.65 1919.23L791.288 1919.53ZM813.152 1895.6L826.906 1890.59L825.276 1890.01C822.011 1888.86 815.063 1886.38 812.84 1885.56L810.561 1884.73L803.553 1887.27L796.544 1889.82L796.221 1890.41L795.897 1890.99L797.648 1895.8L799.398 1900.61L813.152 1895.6Z" fill="#A901D4"/>
<path fill-rule="evenodd" clip-rule="evenodd" d="M232.605 537.23C229.541 527.176 223.226 518.604 214.262 512.334C203.98 505.141 191.249 501.649 177.577 502.271C173.826 502.442 166.505 503.736 162.816 504.881C155.747 507.074 149.478 510.24 143.893 514.437C127.733 526.58 120.087 545.259 124.052 562.906C124.985 567.06 124.91 566.632 125.453 570.855C127.634 587.792 139.807 602.088 157.608 608.617C173.704 614.521 192.482 613.066 207.977 604.712C223.247 596.48 233.505 582.628 235.79 567.155C236.615 561.572 236.45 556.875 235.242 551.496C234.359 547.569 234.474 548.204 233.691 542.909C233.358 540.653 232.869 538.097 232.605 537.23ZM232.362 559.056C232.999 573.451 225.677 587.63 212.712 597.11C206.238 601.844 200.232 604.624 192.078 606.661C186.137 608.145 179.15 608.671 172.994 608.097C163.495 607.211 154.665 604.06 147.241 598.905C127.411 585.136 123.092 560.009 137.147 540.174C148.078 524.748 168.364 515.831 188.299 517.69C208.851 519.606 225.27 531.84 230.735 549.309C231.438 551.559 232.244 556.385 232.362 559.056ZM226.859 533.591C226.715 533.434 225.971 532.577 225.207 531.687C223.857 530.116 223.81 530.023 223.548 528.436L223.278 526.802L224.029 527.888C225.567 530.112 227.806 534.624 226.859 533.591ZM215.768 523.364L212.493 521.121L211.973 518.137L211.454 515.153L213.422 516.578C214.505 517.362 216.013 518.581 216.774 519.287L218.156 520.572L218.6 523.089L219.043 525.606L215.768 523.364ZM222.993 554.355C222.818 554.161 222.323 553.923 221.892 553.826C221.221 553.675 221.014 553.711 220.446 554.075C219.588 554.625 219.472 555.302 219.785 557.952C220.126 560.837 220.618 561.495 222.221 561.213C223.12 561.054 223.455 560.791 223.682 560.063C223.954 559.194 223.428 554.84 222.993 554.355ZM219.264 544.123C218.822 543.117 216.509 540.087 216.073 539.945C214.667 539.484 213.271 540.605 213.516 541.998C213.662 542.827 215.992 546.3 216.656 546.678C218.072 547.485 219.938 545.657 219.264 544.123ZM221.742 569.289C221.213 568.846 220.899 568.756 220.27 568.867C219.83 568.944 219.336 569.156 219.171 569.337C218.818 569.725 217.371 573.675 217.32 574.39C217.268 575.124 218.073 576.037 218.889 576.17C220.363 576.409 221.175 575.33 222.269 571.68C222.652 570.399 222.558 569.972 221.742 569.289ZM205.914 518.041C204.7 517.548 202.835 516.858 201.77 516.508L199.834 515.873L199.215 512.382C198.875 510.463 198.647 508.883 198.71 508.872C198.952 508.829 203.223 510.558 205.042 511.436L206.961 512.361L207.541 515.65L208.121 518.938L205.914 518.041ZM208.684 532.862C208.133 532.008 204.412 529.796 203.728 529.917C202.526 530.129 201.858 531.056 202.055 532.237C202.175 532.952 202.381 533.144 204.429 534.443C206.364 535.671 206.777 535.848 207.442 535.73C208.839 535.484 209.456 534.059 208.684 532.862ZM214.34 582.418C213.255 581.658 212.454 581.992 210.537 584.002C208.65 585.98 208.33 586.729 208.953 587.706C209.427 588.451 210.16 588.814 210.919 588.68C211.521 588.574 214.126 586.108 214.836 584.973C215.371 584.117 215.152 582.986 214.34 582.418ZM195.353 514.741C195.192 514.73 193.862 514.534 192.396 514.306L189.731 513.89L189.082 510.209L188.433 506.527L190.777 506.948C192.067 507.179 193.407 507.427 193.754 507.499L194.387 507.629L195.015 511.195C195.512 514.013 195.583 514.757 195.353 514.741ZM194.405 526.267C193.582 525.692 190.127 524.97 189.066 525.152C187.643 525.395 187.121 527.47 188.247 528.401C188.497 528.607 189.777 528.993 191.093 529.258C193.223 529.687 193.559 529.7 194.163 529.375C194.872 528.994 195.325 528.028 195.181 527.209C195.136 526.958 194.787 526.534 194.405 526.267ZM202.733 592.152C201.924 591.343 201.352 591.409 198.989 592.58C197.795 593.172 196.636 593.894 196.413 594.183C195.827 594.943 196.088 596.224 196.953 596.83C197.525 597.23 197.729 597.25 198.588 596.99C200.241 596.49 202.876 595.007 203.148 594.424C203.468 593.739 203.278 592.696 202.733 592.152ZM185.083 513.6C184.744 513.573 183.421 513.565 182.145 513.583L179.825 513.615L179.11 509.904L178.395 506.193L179.553 506.136C180.19 506.105 181.536 506.093 182.545 506.111L184.378 506.143L185.04 509.897L185.701 513.65L185.083 513.6ZM179.143 525.183C178.492 524.727 178.262 524.708 176.163 524.933C173.681 525.199 172.984 525.477 172.57 526.364C172.17 527.223 172.428 528.071 173.268 528.659C173.903 529.104 174.17 529.148 175.173 528.971C175.815 528.858 176.939 528.723 177.672 528.671C178.948 528.581 179.026 528.545 179.545 527.804C180.256 526.789 180.114 525.863 179.143 525.183ZM174.679 514.137C173.939 514.189 172.621 514.358 171.749 514.512L170.165 514.791L169.57 511.075L168.975 507.358L170.252 507.061C170.954 506.898 172.241 506.704 173.111 506.631L174.694 506.499L175.359 510.271L176.024 514.043L174.679 514.137ZM188.033 597.089C187.407 596.726 187.034 596.71 184.973 596.954C182.332 597.267 181.742 597.544 181.443 598.612C181.205 599.465 181.641 600.405 182.466 600.817C182.96 601.063 183.539 601.046 185.621 600.726L188.172 600.333L188.586 599.638C189.176 598.649 188.954 597.622 188.033 597.089ZM164.214 516.476C163.029 516.835 161.803 517.23 161.489 517.355L160.92 517.58L160.259 513.832L159.598 510.083L161.951 509.296C163.246 508.863 164.474 508.48 164.681 508.445C165.025 508.387 165.114 508.703 165.714 512.103L166.37 515.823L164.214 516.476ZM165.105 529.639C164.722 528.977 163.869 528.528 163.215 528.643C162.442 528.779 159.776 530.016 158.872 530.659C157.745 531.459 157.787 533.061 158.954 533.818C159.669 534.282 160.347 534.14 162.61 533.052C165.052 531.879 165.805 530.848 165.105 529.639ZM173.514 597.78C173.145 597.2 172.51 596.957 170.199 596.51C167.952 596.076 167.176 596.174 166.585 596.965C166.083 597.635 166.205 598.858 166.835 599.489C167.381 600.034 171.878 600.938 172.55 600.637C173.584 600.175 174.087 598.683 173.514 597.78ZM156.943 519.211C155.984 519.685 152.44 521.509 152.207 521.649C151.966 521.794 151.819 521.241 151.273 518.146C150.917 516.124 150.653 514.466 150.686 514.46C150.719 514.454 151.653 513.955 152.761 513.35C153.869 512.746 155.029 512.14 155.341 512.005L155.906 511.759L156.552 515.422C157.036 518.167 157.134 519.116 156.943 519.211ZM151.901 537.522C150.839 536.633 150.132 536.888 148.183 538.867C145.926 541.157 145.638 542.267 147.044 543.252C148.168 544.039 148.778 543.814 150.616 541.935C151.483 541.048 152.327 540.091 152.49 539.808C152.914 539.073 152.683 538.176 151.901 537.522ZM147.709 524.487C147.055 524.854 143.762 527.418 142.331 528.676L141.516 529.393L140.918 525.997L140.321 522.601L141.987 521.067C142.904 520.224 144.419 518.927 145.354 518.185L147.055 516.836L147.698 520.485L148.342 524.134L147.709 524.487ZM159.17 593.021C159.023 592.791 157.941 592.01 156.766 591.285C154.958 590.17 154.51 589.987 153.869 590.1C152.471 590.347 151.866 592.034 152.766 593.179C152.924 593.381 153.947 594.091 155.039 594.757C156.676 595.756 157.153 595.945 157.762 595.838C159.069 595.607 159.837 594.068 159.17 593.021ZM143.153 549.885C141.542 548.757 140.458 549.697 139.325 553.209C138.639 555.336 138.709 555.858 139.779 556.607C140.522 557.128 141.468 557.005 142.092 556.308C142.697 555.632 144.109 551.639 143.988 550.949C143.932 550.631 143.582 550.185 143.153 549.885ZM147.672 583.218C147.089 582.023 144.996 579.276 144.56 579.133C143.144 578.669 141.765 579.799 142.015 581.219C142.187 582.192 144.575 585.629 145.228 585.843C146.936 586.403 148.439 584.789 147.672 583.218ZM137.341 533.665C136.91 534.157 135.844 535.467 134.974 536.577L133.392 538.595L132.901 535.81L132.41 533.026L133.766 530.819C134.513 529.605 135.545 528.108 136.06 527.492L136.996 526.373L137.56 529.572L138.124 532.771L137.341 533.665ZM140.467 564.764C139.539 564.114 138.62 564.228 137.923 565.08C137.506 565.589 137.44 565.938 137.52 567.2C137.694 569.913 137.967 571.078 138.55 571.6C139.613 572.551 141.385 571.986 141.647 570.612C141.714 570.26 141.644 568.917 141.492 567.629L141.215 565.288L140.467 564.764ZM129.146 546.317C128.508 547.749 127.77 549.584 127.506 550.394C127.243 551.204 126.984 551.837 126.932 551.8C126.88 551.764 126.98 550.541 127.156 549.084C127.482 546.371 128.416 542.265 129.131 540.394L129.532 539.345L129.92 541.529L130.307 543.713L129.146 546.317Z" fill="#CC00FF"/>
<path fill-rule="evenodd" clip-rule="evenodd" d="M196.279 553.063C195.276 552.482 193.738 551.6 192.861 551.103C191.983 550.607 190.411 549.707 189.367 549.105L187.468 548.009L182.05 548.964C176.8 549.89 176.623 549.929 176.355 550.238C176.084 550.551 176.09 550.617 176.724 554.211L177.368 557.865L187.742 556.036C193.448 555.03 198.113 554.188 198.109 554.164C198.104 554.14 197.281 553.645 196.279 553.063ZM173.7 552.358C172.089 554.424 168.235 559.455 167.652 560.256L167.141 560.956L167.96 565.602L168.779 570.248L169.196 570.5L169.613 570.751L173.813 570.011L178.014 569.27L176.397 560.122L174.78 550.974L173.7 552.358Z" fill="#CC00FF"/>
<path fill-rule="evenodd" clip-rule="evenodd" d="M186.493 557.91L186.074 557.612L181.905 558.348L177.735 559.083L179.319 568.27L180.904 577.456L181.594 576.54C183.08 574.567 186.194 570.502 187.339 569.041L188.544 567.504L187.728 562.856L186.911 558.208L186.493 557.91ZM167.811 572.288L157.328 574.14L158.423 574.757C160.616 575.992 165.278 578.651 166.767 579.516L168.294 580.402L173.635 579.463L178.977 578.524L179.282 578.146L179.588 577.767L178.941 574.101L178.295 570.436L167.811 572.288Z" fill="#CC00FF"/>
<path fill-rule="evenodd" clip-rule="evenodd" d="M788.732 845.546C804.481 833.701 815.534 817.077 820.834 797.263C826.913 774.533 824.902 749.863 815.038 726.174C812.332 719.674 805.356 707.605 800.974 701.838C792.577 690.791 782.978 681.775 772.001 674.626C740.243 653.941 702.428 652.448 673.88 670.75C667.159 675.058 667.864 674.651 660.773 678.317C632.33 693.021 614.948 723.636 614.859 759.187C614.778 791.334 629.385 823.487 654.04 845.43C678.338 867.055 709.321 876.245 738.05 870.349C748.414 868.223 756.584 864.92 765.287 859.341C771.641 855.268 770.596 855.877 779.423 851.102C783.185 849.068 787.373 846.568 788.732 845.546ZM750.12 859.116C725.167 869.469 695.487 865.661 670.47 848.897C657.978 840.526 649.228 831.727 640.41 818.667C633.985 809.15 628.578 797.177 625.642 785.963C621.111 768.659 621.001 751.08 625.323 734.694C636.865 690.925 678.369 667.202 722.329 679.245C756.518 688.612 785.238 718.636 794.747 754.953C804.551 792.393 793.525 829.167 766.25 849.998C762.738 852.68 754.751 857.195 750.12 859.116ZM791.458 833.089C791.643 832.734 792.675 830.875 793.754 828.958C795.657 825.572 795.79 825.429 798.418 823.949L801.124 822.426L799.692 824.445C796.761 828.581 790.247 835.419 791.458 833.089ZM802.366 806.989L804.217 799.781L809.141 796.951L814.066 794.122L812.818 798.505C812.131 800.916 810.95 804.354 810.193 806.147L808.816 809.406L804.666 811.802L800.516 814.198L802.366 806.989ZM752.395 839.592C752.625 839.161 752.727 838.137 752.621 837.315C752.456 836.035 752.261 835.692 751.256 834.926C749.735 833.767 748.469 833.997 744.001 836.248C739.136 838.699 738.291 839.987 739.817 842.63C740.673 844.113 741.352 844.534 742.78 844.468C744.485 844.389 751.82 840.67 752.395 839.592ZM768.031 826.462C769.521 825.037 773.375 819.018 773.347 818.16C773.258 815.388 770.386 813.645 768.089 814.971C766.722 815.761 762.098 822.092 761.857 823.504C761.343 826.517 765.76 828.633 768.031 826.462ZM725.281 846.966C725.722 845.749 725.679 845.138 725.08 844.102C724.662 843.377 723.971 842.642 723.546 842.467C722.636 842.094 714.749 842.078 713.456 842.447C712.13 842.824 711.038 844.83 711.328 846.352C711.851 849.103 714.273 849.841 721.406 849.427C723.909 849.281 724.601 848.842 725.281 846.966ZM805.425 786.213C805.515 783.758 805.535 780.03 805.468 777.929L805.346 774.11L811.099 770.782C814.263 768.951 816.901 767.537 816.96 767.64C817.192 768.04 816.884 776.674 816.504 780.442L816.104 784.416L810.682 787.547L805.26 790.677L805.425 786.213ZM781.088 800.599C782.24 799.081 783.749 791.105 783.098 789.977C781.954 787.996 779.892 787.413 777.938 788.519C776.754 789.188 776.549 789.675 775.573 794.116C774.651 798.312 774.605 799.154 775.238 800.25C776.567 802.553 779.474 802.726 781.088 800.599ZM697.401 842.344C698.044 839.944 696.943 838.747 692.171 836.658C687.475 834.603 685.952 834.519 684.629 836.243C683.621 837.557 683.452 839.08 684.174 840.332C684.747 841.324 690.763 844.334 693.217 844.856C695.068 845.251 696.921 844.138 697.401 842.344ZM804.467 765.489C804.384 765.199 803.875 762.73 803.338 760.001L802.36 755.039L808.431 751.534L814.501 748.029L815.264 752.43C815.683 754.851 816.105 757.37 816.201 758.029L816.377 759.226L810.497 762.621C805.852 765.303 804.586 765.905 804.467 765.489ZM783.551 771.212C784.037 769.392 783.092 762.841 782.092 761.089C780.751 758.739 776.76 759.148 775.842 761.729C775.639 762.302 775.781 764.805 776.157 767.293C776.767 771.321 776.96 771.922 777.92 772.778C779.045 773.782 781.037 773.962 782.388 773.182C782.803 772.943 783.326 772.056 783.551 771.212ZM672.807 828.136C673.713 826.191 673.231 825.225 669.652 821.814C667.843 820.09 665.828 818.51 665.175 818.302C663.461 817.757 661.371 819.039 660.859 820.952C660.52 822.216 660.616 822.587 661.625 823.934C663.567 826.527 667.869 830.219 669.071 830.324C670.483 830.448 672.197 829.444 672.807 828.136ZM799.891 746.664C799.721 746.048 798.887 743.713 798.038 741.476L796.493 737.409L802.573 733.769L808.653 730.129L809.496 732.133C809.96 733.236 810.843 735.601 811.458 737.388L812.577 740.639L806.388 744.212L800.199 747.785L799.891 746.664ZM775.674 743.624C776.059 742.186 775.946 741.768 774.203 738.215C772.142 734.013 771.206 732.962 769.378 732.802C767.608 732.647 766.278 733.646 765.78 735.503C765.404 736.907 765.499 737.406 766.453 739.06C767.064 740.118 768.023 742.012 768.584 743.27C769.561 745.461 769.674 745.576 771.313 746.015C773.558 746.616 775.099 745.771 775.674 743.624ZM792.272 728.677C791.706 727.407 790.564 725.192 789.734 723.755L788.225 721.142L794.392 717.711L800.558 714.28L801.901 716.338C802.639 717.471 803.805 719.614 804.492 721.101L805.74 723.804L799.521 727.395L793.302 730.986L792.272 728.677ZM654.682 805.402C654.919 804.066 654.709 803.399 652.957 799.924C650.711 795.47 649.845 794.609 647.772 794.768C646.116 794.895 644.739 796.266 644.544 797.982C644.426 799.011 644.827 800.022 646.727 803.484L649.055 807.726L650.545 808.011C652.666 808.417 654.332 807.365 654.682 805.402ZM781.44 711.739C780.048 709.88 778.565 707.973 778.146 707.501L777.383 706.642L783.564 703.074L789.745 699.505L792.64 703.147C794.233 705.15 795.695 707.069 795.89 707.411C796.213 707.98 795.713 708.339 790.108 711.575L783.973 715.118L781.44 711.739ZM758.82 721.749C759.741 720.649 759.986 718.859 759.363 717.781C758.627 716.506 754.738 712.602 753.026 711.42C750.894 709.948 748.097 711.05 747.512 713.592C747.154 715.148 747.839 716.252 751.206 719.541C754.84 723.092 757.139 723.758 758.82 721.749ZM644.152 780.262C644.939 779.241 644.96 777.965 644.265 773.607C643.588 769.37 642.919 768.066 641.146 767.531C639.643 767.078 637.567 768.076 636.86 769.592C636.249 770.902 637.541 779.406 638.501 780.397C639.978 781.922 642.93 781.852 644.152 780.262ZM771.96 700.681C770.509 699.295 765.022 694.221 764.626 693.9C764.216 693.569 765.096 692.954 770.2 690.008C773.533 688.084 776.286 686.555 776.317 686.609C776.349 686.665 777.828 687.99 779.603 689.554C781.379 691.118 783.19 692.775 783.628 693.236L784.424 694.075L778.385 697.562C773.858 700.176 772.248 700.957 771.96 700.681ZM736.463 703.54C737.348 701.098 736.445 700.017 731.71 697.851C726.226 695.343 724.086 695.547 723.253 698.656C722.587 701.141 723.374 702.072 727.864 704.105C729.983 705.065 732.21 705.937 732.813 706.043C734.38 706.319 735.812 705.337 736.463 703.54ZM756.741 687.795C755.676 686.877 749.045 682.719 745.911 681.006L744.126 680.029L749.726 676.798L755.327 673.567L759.097 675.52C761.171 676.595 764.428 678.433 766.335 679.605L769.802 681.736L763.786 685.209L757.77 688.683L756.741 687.795ZM643.34 751.937C643.651 751.532 644.333 749.125 644.857 746.588C645.662 742.689 645.697 741.782 645.086 740.724C643.755 738.419 640.395 738.436 638.954 740.755C638.7 741.165 638.105 743.422 637.632 745.773C636.922 749.297 636.894 750.259 637.474 751.264C638.718 753.418 641.922 753.786 643.34 751.937ZM709.071 696.054C710.025 692.492 707.673 691.186 700.76 691.442C696.571 691.597 695.696 692.055 695.062 694.421C694.622 696.064 695.444 697.653 697.074 698.304C698.653 698.937 706.594 698.864 707.731 698.208C708.256 697.905 708.816 697.004 709.071 696.054ZM653.238 725.393C654.969 723.599 658.468 718.149 658.44 717.29C658.35 714.497 655.474 712.792 653.133 714.144C651.529 715.07 647.004 721.482 647.045 722.769C647.154 726.138 650.962 727.751 653.238 725.393ZM733.921 675.412C732.778 674.968 729.787 673.932 727.273 673.11L722.703 671.616L727.294 668.965L731.885 666.315L736.644 667.29C739.261 667.826 742.56 668.684 743.976 669.197L746.549 670.129L741.274 673.174L735.999 676.22L733.921 675.412ZM681.132 700.865C681.682 698.811 680.893 697.266 678.945 696.584C677.779 696.176 677.122 696.283 674.951 697.234C670.282 699.28 668.403 700.508 667.859 701.869C666.864 704.353 668.996 707.113 671.584 706.693C672.248 706.585 674.569 705.601 676.741 704.507L680.689 702.518L681.132 700.865ZM706.374 669.087C703.441 668.881 699.736 668.757 698.139 668.812C696.543 668.868 695.262 668.818 695.293 668.703C695.324 668.587 697.542 667.98 700.222 667.355C705.213 666.19 713.045 665.202 716.801 665.263L718.907 665.297L715.307 667.38L711.707 669.463L706.374 669.087Z" fill="#EA96FF"/>
<path fill-rule="evenodd" clip-rule="evenodd" d="M737.539 791.697C737.921 789.558 738.488 786.282 738.8 784.417C739.112 782.553 739.689 779.206 740.081 776.979L740.795 772.932L735.637 763.997C730.639 755.342 730.455 755.055 729.74 754.782C729.014 754.504 728.902 754.557 722.976 757.979L716.951 761.458L726.826 778.563C732.258 787.97 736.734 795.649 736.773 795.627C736.812 795.604 737.157 793.836 737.539 791.697ZM724.302 751.463C719.629 749.948 708.294 746.385 706.508 745.87L704.946 745.42L697.286 749.843L689.625 754.266L689.449 755.161L689.273 756.057L693.272 762.983L697.271 769.908L712.352 761.193L727.433 752.478L724.302 751.463Z" fill="#EA96FF"/>
<path fill-rule="evenodd" clip-rule="evenodd" d="M722.724 777.563L722.98 776.635L719.01 769.759L715.041 762.884L699.871 771.567L684.7 780.25L686.757 780.879C691.187 782.232 700.345 785.112 703.654 786.192L707.136 787.329L714.802 782.91L722.467 778.491L722.724 777.563ZM685.411 753.868L675.425 736.584L675.04 738.909C674.269 743.565 672.574 753.485 672.006 756.663L671.424 759.921L676.503 768.73L681.583 777.54L682.446 777.835L683.31 778.131L689.353 774.641L695.397 771.152L685.411 753.868Z" fill="#EA96FF"/>
<path fill-rule="evenodd" clip-rule="evenodd" d="M99.7164 880.918C86.9178 877.951 73.6919 879.43 61.3016 885.214C47.0882 891.85 35.3516 903.449 27.4803 918.638C25.3207 922.805 22.1461 931.539 21.0791 936.249C19.0355 945.271 18.5446 954.036 19.5973 962.706C22.6429 987.789 38.0848 1007.74 59.6653 1014.48C64.7454 1016.06 64.2355 1015.88 69.1463 1017.93C88.8443 1026.15 111.928 1021.91 130.122 1006.72C146.574 992.987 156.734 971.749 157.375 949.754C158.007 928.079 149.424 908.318 134.102 896.172C128.574 891.791 123.386 889.033 116.808 886.98C112.005 885.48 112.764 885.753 106.543 883.291C103.892 882.242 100.82 881.174 99.7164 880.918ZM123.192 894.822C139.173 903.129 149.946 919.918 152.106 939.878C153.184 949.845 152.44 958.084 149.549 968.184C147.442 975.543 143.644 983.435 139.175 989.74C132.28 999.469 123.349 1007.06 113.129 1011.87C85.8304 1024.73 55.9296 1013.71 43.2423 986.094C33.3748 964.62 36.401 937.087 50.8727 916.667C65.7921 895.617 89.2975 885.489 111.624 890.492C114.498 891.136 120.227 893.28 123.192 894.822ZM92.1863 884.864C91.9258 884.922 90.5338 885.191 89.0928 885.462C86.5476 885.941 86.418 885.934 84.5356 885.226L82.5984 884.497L84.2433 884.363C87.6115 884.088 93.8953 884.484 92.1863 884.864ZM74.1827 890.478L69.7083 892.621L66.153 891.319L62.5978 890.017L65.3709 888.776C66.8962 888.093 69.1587 887.223 70.3984 886.842L72.6528 886.148L75.655 887.241L78.6571 888.334L74.1827 890.478ZM112.247 902.026C111.928 902.094 111.361 902.481 110.987 902.887C110.404 903.52 110.313 903.766 110.352 904.608C110.411 905.881 111.072 906.429 114.136 907.746C117.472 909.181 118.492 909.06 119.188 907.148C119.579 906.075 119.503 905.548 118.857 904.848C118.086 904.01 113.043 901.858 112.247 902.026ZM98.8408 899.668C97.4747 899.518 92.7493 900.128 92.323 900.51C90.9453 901.744 91.2863 903.957 92.9475 904.562C93.9364 904.922 99.1513 904.571 99.9762 904.088C101.735 903.06 100.923 899.897 98.8408 899.668ZM127.632 912.714C126.821 913.01 126.528 913.294 126.255 914.044C126.064 914.568 125.984 915.236 126.077 915.528C126.277 916.152 129.648 920.187 130.391 920.689C131.152 921.204 132.644 920.903 133.297 920.103C134.478 918.657 133.817 917.104 130.549 913.638C129.402 912.422 128.881 912.257 127.632 912.714ZM62.2618 897.819C60.9688 898.825 59.0568 900.412 58.0127 901.346L56.1145 903.046L51.9493 901.534C49.6585 900.702 47.8061 899.961 47.8331 899.887C47.9385 899.597 52.4796 896.054 54.5665 894.634L56.7679 893.135L60.6902 894.562L64.6122 895.99L62.2618 897.819ZM80.0374 904.083C78.7684 904.145 74.0485 906.792 73.7516 907.608C73.2299 909.041 73.816 910.344 75.2178 910.868C76.0671 911.186 76.404 911.082 79.0899 909.678C81.628 908.35 82.0775 908.013 82.3663 907.22C82.9726 905.554 81.8154 903.996 80.0374 904.083ZM137.218 928.933C135.717 929.632 135.578 930.708 136.556 934.04C137.518 937.319 138.128 938.133 139.576 938.07C140.679 938.021 141.529 937.455 141.859 936.55C142.12 935.832 141.079 931.47 140.294 929.993C139.703 928.878 138.341 928.409 137.218 928.933ZM52.0886 907.189C51.9763 907.355 50.9328 908.673 49.7697 910.117L47.6544 912.743L43.2632 911.144L38.8717 909.546L40.7927 907.271C41.8493 906.02 42.9552 904.724 43.2502 904.393L43.7862 903.79L48.0396 905.338C51.4 906.561 52.2498 906.95 52.0886 907.189ZM63.9739 915.418C62.8367 915.95 59.896 919.239 59.4295 920.501C58.804 922.193 60.7229 924.056 62.4349 923.418C62.8143 923.277 64.032 922.132 65.1413 920.873C66.9371 918.836 67.1611 918.48 67.1871 917.623C67.2176 916.618 66.4556 915.523 65.4786 915.168C65.1788 915.058 64.5016 915.171 63.9739 915.418ZM140.501 947.581C139.12 947.952 138.833 948.612 138.625 951.901C138.52 953.564 138.576 955.27 138.75 955.693C139.206 956.802 140.756 957.319 141.953 956.762C142.743 956.393 142.892 956.185 143.148 955.093C143.64 952.99 143.681 949.21 143.22 948.551C142.678 947.777 141.431 947.332 140.501 947.581ZM44.4354 917.593C44.1934 917.943 43.3585 919.37 42.58 920.762L41.1649 923.294L36.7007 921.749L32.2365 920.204L32.8988 918.914C33.2631 918.205 34.0924 916.741 34.7415 915.66L35.922 913.696L40.3988 915.325L44.8759 916.955L44.4354 917.593ZM53.2606 931.263C52.361 931.682 52.1964 931.919 51.1285 934.332C49.8654 937.185 49.7303 938.114 50.4319 939.116C51.1111 940.086 52.1911 940.337 53.3529 939.795C54.2312 939.386 54.4456 939.124 54.8809 937.928C55.1595 937.162 55.7162 935.861 56.1181 935.036C56.8185 933.598 56.8282 933.49 56.3503 932.466C55.6954 931.062 54.6038 930.636 53.2606 931.263ZM38.5141 929.191C38.1084 930.025 37.4667 931.557 37.0884 932.597L36.4004 934.487L32.0056 932.808L27.611 931.129L28.087 929.561C28.3489 928.699 28.9437 927.185 29.4089 926.198L30.2544 924.401L34.7533 926.039L39.2522 927.676L38.5141 929.191ZM136.659 966.58C135.875 967.031 135.624 967.424 134.6 969.808C133.288 972.864 133.219 973.675 134.189 974.666C134.963 975.456 136.253 975.572 137.214 974.937C137.79 974.556 138.134 973.918 139.088 971.464L140.257 968.458L139.764 967.575C139.062 966.318 137.811 965.917 136.659 966.58ZM34.5057 941.982C34.1534 943.489 33.8148 945.064 33.7535 945.48L33.642 946.238L29.1708 944.61L24.6996 942.983L25.3186 939.944C25.6589 938.272 26.0124 936.703 26.1037 936.457C26.2556 936.048 26.6533 936.149 30.7081 937.625L35.1462 939.24L34.5057 941.982ZM49.3112 949.244C48.3551 949.245 47.3359 949.887 47.0521 950.667C46.7163 951.59 46.3895 955.249 46.5193 956.629C46.6813 958.349 48.4424 959.305 49.9915 958.514C50.9394 958.031 51.2098 957.208 51.4467 954.079C51.7026 950.701 51.0579 949.241 49.3112 949.244ZM128.332 982.73C127.473 982.766 126.813 983.302 124.885 985.525C123.011 987.686 122.632 988.586 123.119 989.721C123.531 990.683 124.931 991.315 126.007 991.027C126.938 990.777 130.728 986.474 130.823 985.558C130.968 984.151 129.668 982.673 128.332 982.73ZM32.9216 951.562C32.835 952.897 32.5953 957.873 32.6011 958.213C32.6074 958.564 31.9165 958.378 28.2249 957.034C25.8139 956.157 23.8532 955.406 23.8677 955.366C23.8822 955.326 23.9253 954.003 23.9632 952.427C24.0012 950.85 24.0714 949.215 24.1194 948.793L24.2065 948.027L28.5755 949.617C31.85 950.809 32.9388 951.296 32.9216 951.562ZM49.5924 968.465C47.9661 969.059 47.8011 969.984 48.7244 973.33C49.7936 977.205 50.8147 978.211 52.7594 977.304C54.314 976.579 54.4516 975.778 53.5664 972.614C53.1483 971.121 52.6395 969.609 52.435 969.256C51.9045 968.338 50.7891 968.027 49.5924 968.465ZM32.8623 964.856C32.8496 965.793 33.5679 970.961 34.0355 973.296L34.3018 974.626L30.2521 973.151L26.2021 971.675L25.5838 968.913C25.2439 967.393 24.7868 964.942 24.5682 963.466L24.171 960.782L28.5227 962.366L32.8745 963.95L32.8623 964.856ZM114.214 995.283C113.874 995.298 112.353 995.981 110.833 996.8C108.497 998.06 108.018 998.431 107.74 999.196C107.133 1000.86 108.582 1002.57 110.383 1002.31C110.701 1002.27 112.109 1001.61 113.512 1000.84C115.616 999.692 116.12 999.294 116.384 998.567C116.951 997.009 115.766 995.215 114.214 995.283ZM57.5078 985.662C55.2796 986.701 55.621 988.462 58.7143 991.882C60.5884 993.955 61.1968 994.206 62.6766 993.516C63.7049 993.036 64.1635 991.936 63.7982 990.824C63.4443 989.747 60.0046 985.722 59.1818 985.423C58.8023 985.285 58.1019 985.385 57.5078 985.662ZM96.417 1001.6C94.7592 1001.49 90.4763 1002.04 90.0492 1002.42C88.6619 1003.66 89.0238 1005.86 90.7171 1006.48C91.8774 1006.9 97.0911 1006.46 97.7309 1005.89C99.4047 1004.39 98.5968 1001.75 96.417 1001.6ZM36.3173 981.817C36.5801 982.59 37.3328 984.562 37.9902 986.198L39.1856 989.172L35.8647 987.963L32.5438 986.755L31.0024 983.907C30.1549 982.34 29.1792 980.287 28.8342 979.345L28.2075 977.631L32.0234 979.02L35.8394 980.409L36.3173 981.817ZM71.9371 997.868C70.6526 998.467 70.2018 999.533 70.6883 1000.82C70.9791 1001.59 71.3154 1001.88 72.7317 1002.58C75.7775 1004.09 77.2095 1004.52 78.138 1004.22C79.8328 1003.66 80.3288 1001.39 79.0051 1000.25C78.6654 999.954 77.1686 999.19 75.679 998.55L72.9709 997.386L71.9371 997.868ZM44.8915 998.595C46.0431 1000.18 47.5679 1002.13 48.2801 1002.92C48.9923 1003.71 49.5158 1004.38 49.4435 1004.42C49.3711 1004.45 48.111 1003.58 46.6432 1002.48C43.9097 1000.43 40.0487 996.853 38.4704 994.909L37.5853 993.819L40.1917 994.764L42.7983 995.71L44.8915 998.595Z" fill="#F3C5FF"/>
<path fill-rule="evenodd" clip-rule="evenodd" d="M94.1531 930.138C92.8972 930.86 90.981 931.973 89.895 932.613C88.809 933.253 86.8526 934.393 85.5476 935.146L83.1746 936.516L80.8223 942.979C78.5434 949.24 78.4755 949.457 78.6425 949.94C78.8121 950.429 78.8869 950.464 83.1738 952.024L87.5326 953.61L92.0361 941.237C94.5131 934.432 96.5165 928.855 96.4882 928.845C96.46 928.835 95.4091 929.417 94.1531 930.138ZM79.2781 954.139C80.5069 957.174 83.545 964.49 84.047 965.623L84.4863 966.614L90.0277 968.631L95.5693 970.647L96.102 970.353L96.6347 970.06L98.4582 965.049L100.282 960.04L89.3682 956.072L78.4548 952.105L79.2781 954.139Z" fill="#F3C5FF"/>
<path fill-rule="evenodd" clip-rule="evenodd" d="M93.2837 943.761L92.6998 944.028L90.8896 949.001L89.0794 953.975L100.015 958.001L110.95 962.027L110.39 960.708C109.182 957.865 106.729 951.954 105.863 949.802L104.951 947.537L99.4092 945.515L93.8675 943.494L93.2837 943.761ZM97.1724 972.97L92.6246 985.476L93.9769 984.677C96.6852 983.075 102.477 979.69 104.344 978.618L106.257 977.519L108.579 971.15L110.902 964.781L110.682 964.214L110.463 963.646L106.092 962.055L101.72 960.464L97.1724 972.97Z" fill="#F3C5FF"/>
<defs>
<linearGradient id="paint0_linear" x1="3.55371" y1="1079.33" x2="911.548" y2="1079.33" gradientUnits="userSpaceOnUse">
<stop stop-color="#CC00FF"/>
<stop offset="1" stop-color="white"/>
</linearGradient>
</defs>
</svg>
