<svg width="1440" height="657" viewBox="0 0 1440 657" fill="none" xmlns="http://www.w3.org/2000/svg">
<path d="M-43 2.99976C-43 2.99976 517 773.5 729.5 318.5C942 -136.5 1498 654 1498 654" stroke="url(#paint0_linear)" stroke-width="8"/>
<path fill-rule="evenodd" clip-rule="evenodd" d="M97.137 526.551C87.9005 531.246 80.6598 538.845 76.1067 548.62C70.8835 559.835 69.6727 572.792 72.6172 585.958C73.4251 589.571 75.9349 596.457 77.6777 599.843C81.0169 606.33 85.1637 611.874 90.1949 616.579C104.75 630.188 124.194 634.414 140.647 627.544C144.52 625.927 144.118 626.073 148.124 624.823C164.194 619.806 175.99 605.541 179.282 587.141C182.258 570.503 177.63 552.521 166.868 538.908C156.261 525.493 141.058 517.905 125.644 518.335C120.083 518.49 115.551 519.454 110.536 521.549C106.874 523.078 107.471 522.857 102.464 524.524C100.331 525.234 97.9337 526.146 97.137 526.551ZM118.368 523.05C132.234 519.967 147.254 524.649 158.677 535.613C164.381 541.088 168.108 546.443 171.482 554.01C173.94 559.525 175.646 566.218 176.143 572.292C176.909 581.666 175.361 590.778 171.627 598.868C161.654 620.477 137.999 628.971 116.336 618.722C99.4886 610.75 87.3593 592.582 85.751 572.91C84.0932 552.629 93.1599 534.594 109.184 526.298C111.247 525.23 115.795 523.622 118.368 523.05ZM94.5879 532.752C94.4599 532.919 93.7555 533.787 93.0222 534.681C91.7274 536.261 91.6457 536.323 90.1494 536.849L88.6096 537.391L89.5352 536.476C91.4307 534.602 95.4279 531.656 94.5879 532.752ZM86.5569 545.27L84.9405 548.834L82.1324 549.849L79.3242 550.865L80.3706 548.709C80.9461 547.524 81.8717 545.851 82.4274 544.992L83.4379 543.43L85.8056 542.568L88.1733 541.707L86.5569 545.27ZM115.408 532.951C115.25 533.153 115.103 533.675 115.083 534.11C115.051 534.788 115.121 534.983 115.572 535.471C116.253 536.21 116.93 536.207 119.449 535.449C122.192 534.624 122.747 534.034 122.198 532.527C121.89 531.681 121.577 531.4 120.832 531.305C119.941 531.19 115.804 532.446 115.408 532.951ZM106.113 538.322C105.212 538.924 102.666 541.689 102.602 542.135C102.396 543.579 103.724 544.744 105.034 544.267C105.814 543.983 108.786 541.127 109.04 540.417C109.581 538.905 107.487 537.406 106.113 538.322ZM130.121 531.609C129.781 532.198 129.748 532.519 129.963 533.11C130.113 533.524 130.404 533.967 130.608 534.097C131.045 534.373 135.127 535.101 135.831 535.028C136.552 534.954 137.3 534.015 137.289 533.201C137.269 531.728 136.083 531.125 132.352 530.688C131.042 530.535 130.644 530.699 130.121 531.609ZM83.0765 555.749C82.8052 557.012 82.4548 558.94 82.2977 560.034L82.0123 562.023L78.7294 563.221C76.9239 563.88 75.429 564.371 75.4077 564.312C75.3246 564.084 76.2721 559.642 76.8127 557.725L77.3829 555.704L80.4762 554.578L83.5694 553.452L83.0765 555.749ZM96.9911 550.522C96.256 551.203 94.7463 555.194 94.9805 555.838C95.3918 556.968 96.4065 557.458 97.5191 557.064C98.1931 556.826 98.3442 556.592 99.2548 554.382C100.115 552.294 100.216 551.862 99.9884 551.236C99.5102 549.923 98.0212 549.568 96.9911 550.522ZM144.134 536.547C143.582 537.731 144.043 538.452 146.323 539.969C148.567 541.462 149.348 541.644 150.191 540.872C150.832 540.284 151.059 539.511 150.799 538.797C150.593 538.231 147.753 536.123 146.53 535.629C145.608 535.255 144.547 535.662 144.134 536.547ZM81.6803 566.567C81.697 566.724 81.7346 568.049 81.7639 569.511L81.817 572.17L78.3538 573.43L74.8904 574.691L74.8976 572.343C74.9017 571.051 74.9131 569.708 74.9233 569.358L74.9415 568.722L78.296 567.501C80.9462 566.537 81.6566 566.34 81.6803 566.567ZM93.0326 565.513C92.6152 566.411 92.5061 569.889 92.8639 570.888C93.3439 572.227 95.4474 572.38 96.1586 571.127C96.3161 570.849 96.4712 569.54 96.5034 568.217C96.5555 566.076 96.5102 565.747 96.0916 565.216C95.6007 564.594 94.5853 564.319 93.8147 564.599C93.5783 564.685 93.2264 565.097 93.0326 565.513ZM155.572 546.15C154.925 547.074 155.086 547.618 156.628 549.711C157.408 550.769 158.306 551.771 158.625 551.938C159.463 552.377 160.662 551.904 161.102 550.96C161.393 550.337 161.378 550.136 160.978 549.346C160.209 547.826 158.319 545.522 157.706 545.357C156.986 545.164 156.007 545.528 155.572 546.15ZM82.3308 576.732C82.3624 577.066 82.5811 578.351 82.8168 579.587L83.2453 581.834L79.7649 583.164L76.2845 584.493L76.0309 583.379C75.8915 582.765 75.6502 581.46 75.4947 580.479L75.2121 578.694L78.7427 577.408L82.2736 576.123L82.3308 576.732ZM94.5926 580.517C94.2618 581.226 94.2824 581.453 94.8603 583.452C95.5436 585.816 95.9327 586.445 96.8647 586.695C97.7668 586.937 98.5466 586.541 98.9739 585.625C99.2969 584.932 99.2935 584.665 98.9502 583.722C98.7305 583.118 98.4071 582.05 98.2315 581.348C97.9257 580.124 97.8772 580.054 97.0691 579.677C95.9616 579.161 95.0866 579.458 94.5926 580.517ZM84.6334 586.741C84.8107 587.45 85.2 588.701 85.4984 589.521L86.041 591.012L82.5349 592.226L79.0287 593.439L78.5215 592.25C78.2426 591.597 77.8346 590.381 77.6148 589.548L77.2151 588.034L80.7632 586.743L84.3112 585.452L84.6334 586.741ZM162.881 559.576C162.636 560.246 162.684 560.61 163.274 562.57C164.03 565.081 164.4 565.606 165.488 565.713C166.357 565.798 167.195 565.214 167.453 564.343C167.608 563.821 167.492 563.261 166.825 561.295L166.007 558.886L165.261 558.603C164.2 558.199 163.241 558.591 162.881 559.576ZM88.6956 596.5C89.2471 597.59 89.8407 598.713 90.0148 598.995L90.3315 599.509L86.8052 600.793L83.279 602.076L82.1122 599.926C81.4704 598.744 80.8884 597.617 80.8189 597.422C80.7035 597.098 80.9949 596.957 84.1928 595.793L87.6929 594.519L88.6956 596.5ZM101.322 593.382C100.745 593.868 100.455 594.772 100.679 595.387C100.943 596.115 102.601 598.491 103.379 599.259C104.349 600.216 105.897 599.901 106.433 598.638C106.76 597.865 106.506 597.231 105.063 595.221C103.506 593.05 102.376 592.495 101.322 593.382ZM166.038 573.554C165.537 574.011 165.41 574.67 165.372 576.99C165.335 579.245 165.563 579.982 166.432 580.42C167.169 580.792 168.335 580.465 168.839 579.745C169.275 579.122 169.383 574.601 168.976 574C168.351 573.076 166.816 572.843 166.038 573.554ZM92.5951 603.091C93.2196 603.942 95.5977 607.07 95.7734 607.272C95.9552 607.481 95.4434 607.719 92.5319 608.778C90.6305 609.471 89.0654 610.011 89.054 609.98C89.0425 609.948 88.3979 609.127 87.6214 608.155C86.845 607.183 86.0584 606.16 85.8739 605.881L85.538 605.374L88.9836 604.12C91.5661 603.18 92.4709 602.922 92.5951 603.091ZM111.236 604.852C110.554 606.035 110.923 606.678 113.178 608.231C115.788 610.031 116.915 610.12 117.63 608.587C118.202 607.361 117.879 606.807 115.74 605.344C114.73 604.654 113.657 603.999 113.354 603.889C112.568 603.603 111.737 603.981 111.236 604.852ZM99.2987 611.153C99.7663 611.726 102.82 614.484 104.286 615.657L105.121 616.326L101.927 617.487L98.732 618.649L96.9579 617.293C95.9822 616.548 94.4637 615.299 93.5833 614.518L91.9828 613.098L95.4148 611.849L98.8469 610.599L99.2987 611.153ZM163.872 588.295C163.674 588.476 163.101 589.66 162.599 590.926C161.826 592.871 161.725 593.337 161.945 593.941C162.423 595.256 164.165 595.554 165.122 594.485C165.291 594.296 165.806 593.181 166.265 592.008C166.955 590.248 167.057 589.752 166.848 589.179C166.401 587.95 164.775 587.467 163.872 588.295ZM124.736 611.229C123.916 612.986 125.015 613.877 128.618 614.375C130.801 614.678 131.296 614.521 131.84 613.354C132.218 612.543 131.937 611.645 131.153 611.159C130.393 610.687 126.275 610 125.626 610.236C125.327 610.345 124.954 610.76 124.736 611.229ZM156.324 601.135C155.264 601.906 152.954 604.408 152.89 604.856C152.682 606.31 154.016 607.455 155.351 606.969C156.266 606.636 159.195 603.729 159.291 603.059C159.542 601.305 157.718 600.122 156.324 601.135ZM109.984 619.648C110.535 619.982 111.989 620.792 113.216 621.447L115.446 622.638L112.827 623.591L110.208 624.544L107.833 623.605C106.527 623.089 104.896 622.343 104.21 621.949L102.963 621.231L105.972 620.136L108.982 619.04L109.984 619.648ZM139.641 611.289C139.169 612.302 139.437 613.174 140.383 613.705C140.949 614.023 141.299 614.027 142.51 613.733C145.115 613.1 146.199 612.636 146.606 611.981C147.347 610.785 146.495 609.161 145.117 609.143C144.763 609.138 143.472 609.435 142.247 609.804L140.021 610.473L139.641 611.289ZM123.67 625.438C125.17 625.813 127.077 626.215 127.909 626.332C128.74 626.449 129.399 626.592 129.372 626.649C129.346 626.706 128.142 626.818 126.697 626.897C124.007 627.044 119.861 626.841 117.922 626.467L116.834 626.256L118.889 625.506L120.943 624.757L123.67 625.438Z" fill="#5801C8"/>
<path fill-rule="evenodd" clip-rule="evenodd" d="M118.727 559.107C118.335 560.18 117.741 561.824 117.41 562.761C117.078 563.698 116.474 565.379 116.067 566.495L115.328 568.526L117.183 573.623C118.981 578.561 119.05 578.727 119.395 578.933C119.746 579.143 119.808 579.126 123.189 577.895L126.627 576.644L123.075 566.886C121.122 561.519 119.505 557.134 119.483 557.142C119.46 557.15 119.121 558.035 118.727 559.107ZM121.908 581.148C124.189 582.359 129.733 585.239 130.611 585.669L131.378 586.044L135.749 584.454L140.119 582.863L140.292 582.415L140.465 581.968L139.027 578.016L137.588 574.065L128.984 577.201L120.379 580.337L121.908 581.148Z" fill="#5801C8"/>
<path fill-rule="evenodd" clip-rule="evenodd" d="M125.108 567.778L124.891 568.235L126.318 572.158L127.746 576.08L136.394 572.969L145.041 569.858L144.034 569.345C141.864 568.24 137.385 565.912 135.77 565.051L134.071 564.145L129.698 565.733L125.326 567.321L125.108 567.778ZM142.265 583.454L145.857 593.315L146.269 592.146C147.093 589.806 148.877 584.824 149.461 583.23L150.06 581.596L148.234 576.571L146.408 571.546L145.988 571.315L145.568 571.083L142.12 572.338L138.672 573.592L142.265 583.454Z" fill="#5801C8"/>
<path fill-rule="evenodd" clip-rule="evenodd" d="M1116.17 167.222C1123.38 165.025 1129.52 160.497 1134.02 154.071C1139.17 146.698 1141.68 137.571 1141.23 127.769C1141.11 125.079 1140.18 119.831 1139.36 117.185C1137.79 112.117 1135.52 107.623 1132.51 103.618C1123.8 92.0324 1110.41 86.5502 1097.76 89.3928C1094.78 90.062 1095.09 90.008 1092.06 90.3977C1079.92 91.9613 1069.67 100.689 1064.99 113.451C1060.75 124.992 1061.8 138.455 1067.79 149.564C1073.69 160.513 1083.62 167.867 1094.71 169.506C1098.71 170.097 1102.08 169.979 1105.94 169.112C1108.76 168.479 1108.3 168.562 1112.1 168.001C1113.71 167.762 1115.55 167.411 1116.17 167.222ZM1100.52 167.048C1090.2 167.504 1080.03 162.254 1073.24 152.959C1069.84 148.317 1067.85 144.011 1066.39 138.165C1065.32 133.906 1064.95 128.896 1065.36 124.483C1065.99 117.673 1068.25 111.342 1071.95 106.019C1081.82 91.8014 1099.84 88.7051 1114.06 98.7817C1125.12 106.619 1131.51 121.163 1130.18 135.456C1128.8 150.191 1120.03 161.963 1107.51 165.881C1105.89 166.385 1102.43 166.963 1100.52 167.048ZM1118.78 163.102C1118.89 162.999 1119.5 162.466 1120.14 161.918C1121.27 160.95 1121.33 160.916 1122.47 160.728L1123.64 160.535L1122.87 161.073C1121.27 162.175 1118.04 163.781 1118.78 163.102ZM1126.11 155.15L1127.72 152.802L1129.86 152.43L1132 152.057L1130.97 153.469C1130.41 154.245 1129.54 155.326 1129.03 155.871L1128.11 156.862L1126.31 157.18L1124.5 157.499L1126.11 155.15ZM1103.89 160.33C1104.03 160.205 1104.2 159.85 1104.27 159.541C1104.38 159.06 1104.35 158.911 1104.09 158.504C1103.7 157.889 1103.21 157.806 1101.31 158.031C1099.24 158.275 1098.77 158.627 1098.97 159.776C1099.09 160.421 1099.28 160.662 1099.8 160.824C1100.42 161.019 1103.54 160.642 1103.89 160.33ZM1111.23 157.657C1111.95 157.34 1114.12 155.681 1114.22 155.369C1114.55 154.361 1113.75 153.36 1112.75 153.536C1112.15 153.641 1109.67 155.311 1109.39 155.787C1108.81 156.802 1110.13 158.14 1111.23 157.657ZM1093.18 159.433C1093.5 159.054 1093.56 158.829 1093.49 158.378C1093.43 158.063 1093.28 157.708 1093.15 157.59C1092.87 157.337 1090.04 156.3 1089.52 156.263C1089 156.225 1088.34 156.803 1088.25 157.388C1088.08 158.445 1088.85 159.027 1091.47 159.811C1092.39 160.086 1092.69 160.019 1093.18 159.433ZM1129.93 148.085C1130.28 147.215 1130.77 145.878 1131.02 145.114L1131.48 143.726L1133.98 143.282C1135.36 143.038 1136.49 142.875 1136.5 142.92C1136.53 143.094 1135.29 146.156 1134.66 147.46L1134 148.836L1131.64 149.252L1129.28 149.668L1129.93 148.085ZM1119.3 150.071C1119.91 149.676 1121.5 147.008 1121.41 146.518C1121.26 145.656 1120.59 145.177 1119.75 145.319C1119.23 145.405 1119.1 145.553 1118.17 147.021C1117.29 148.408 1117.16 148.704 1117.24 149.181C1117.42 150.182 1118.44 150.624 1119.3 150.071ZM1083.77 154.126C1084.31 153.348 1084.08 152.774 1082.63 151.399C1081.22 150.047 1080.68 149.818 1079.98 150.264C1079.44 150.604 1079.18 151.129 1079.28 151.674C1079.36 152.105 1081.12 153.973 1081.94 154.482C1082.55 154.866 1083.36 154.708 1083.77 154.126ZM1132.29 140.513C1132.3 140.398 1132.44 139.444 1132.6 138.394L1132.9 136.483L1135.54 136.017L1138.18 135.552L1137.88 137.233C1137.71 138.157 1137.54 139.118 1137.48 139.367L1137.39 139.82L1134.83 140.271C1132.81 140.627 1132.28 140.678 1132.29 140.513ZM1124.03 139.834C1124.44 139.244 1124.96 136.766 1124.83 136.006C1124.65 134.986 1123.17 134.611 1122.5 135.419C1122.35 135.598 1122.07 136.516 1121.88 137.459C1121.58 138.986 1121.57 139.227 1121.8 139.66C1122.07 140.168 1122.76 140.493 1123.35 140.39C1123.53 140.358 1123.84 140.108 1124.03 139.834ZM1076.79 145.805C1077.37 145.224 1077.32 144.814 1076.48 143.121C1076.06 142.264 1075.54 141.433 1075.33 141.273C1074.79 140.853 1073.87 141.041 1073.44 141.661C1073.15 142.071 1073.14 142.217 1073.32 142.832C1073.68 144.018 1074.74 145.907 1075.16 146.102C1075.65 146.332 1076.4 146.195 1076.79 145.805ZM1133.11 133.15C1133.13 132.907 1133.13 131.959 1133.12 131.044L1133.1 129.38L1135.76 128.868L1138.42 128.355L1138.46 129.185C1138.48 129.642 1138.49 130.607 1138.48 131.33L1138.46 132.645L1135.76 133.119L1133.07 133.594L1133.11 133.15ZM1124.81 128.891C1125.13 128.425 1125.15 128.26 1124.98 126.755C1124.79 124.976 1124.59 124.476 1123.96 124.179C1123.34 123.892 1122.73 124.077 1122.31 124.679C1121.99 125.134 1121.96 125.326 1122.09 126.045C1122.17 126.505 1122.27 127.311 1122.3 127.837C1122.37 128.752 1122.39 128.808 1122.93 129.18C1123.65 129.689 1124.32 129.587 1124.81 128.891ZM1132.72 125.691C1132.69 125.161 1132.57 124.215 1132.46 123.59L1132.26 122.454L1134.92 122.028L1137.58 121.601L1137.8 122.517C1137.91 123.02 1138.05 123.943 1138.11 124.567L1138.2 125.701L1135.5 126.178L1132.79 126.655L1132.72 125.691ZM1073.25 135.266C1073.51 134.817 1073.52 134.549 1073.35 133.072C1073.12 131.178 1072.92 130.755 1072.16 130.541C1071.55 130.37 1070.87 130.682 1070.58 131.274C1070.4 131.628 1070.41 132.043 1070.64 133.536L1070.92 135.365L1071.42 135.662C1072.13 136.085 1072.87 135.925 1073.25 135.266ZM1131.05 118.188C1130.79 117.338 1130.51 116.459 1130.42 116.234L1130.26 115.826L1132.94 115.352L1135.63 114.878L1136.2 116.566C1136.51 117.494 1136.78 118.374 1136.81 118.523C1136.85 118.769 1136.62 118.833 1134.18 119.263L1131.52 119.733L1131.05 118.188ZM1121.61 118.827C1122.08 118.552 1122.41 117.941 1122.32 117.472C1122.23 116.917 1121.34 115.006 1120.88 114.358C1120.31 113.55 1119.16 113.58 1118.61 114.417C1118.28 114.929 1118.38 115.415 1119.16 117.038C1120 118.789 1120.74 119.329 1121.61 118.827ZM1072.76 124.855C1073.17 124.591 1073.35 124.135 1073.67 122.479C1073.98 120.868 1073.91 120.312 1073.34 119.888C1072.86 119.528 1071.98 119.615 1071.53 120.067C1071.14 120.458 1070.49 123.683 1070.71 124.165C1071.04 124.906 1072.11 125.266 1072.76 124.855ZM1129.09 112.975C1128.75 112.287 1127.44 109.746 1127.34 109.579C1127.23 109.407 1127.63 109.301 1129.85 108.91C1131.3 108.654 1132.49 108.465 1132.49 108.489C1132.5 108.513 1132.86 109.182 1133.29 109.976C1133.72 110.77 1134.16 111.603 1134.25 111.826L1134.43 112.232L1131.8 112.695C1129.83 113.042 1129.15 113.112 1129.09 112.975ZM1115.96 109.36C1116.6 108.598 1116.41 108.092 1114.99 106.694C1113.35 105.076 1112.56 104.869 1111.85 105.877C1111.29 106.683 1111.45 107.121 1112.79 108.438C1113.43 109.06 1114.12 109.665 1114.32 109.782C1114.85 110.086 1115.49 109.92 1115.96 109.36ZM1125.3 106.354C1125.04 105.885 1123.2 103.524 1122.3 102.498L1121.79 101.914L1124.22 101.486L1126.66 101.057L1127.76 102.252C1128.36 102.909 1129.29 103.996 1129.82 104.666L1130.79 105.885L1128.17 106.347L1125.56 106.808L1125.3 106.354ZM1076.17 114.571C1076.33 114.466 1076.89 113.691 1077.41 112.848C1078.21 111.552 1078.34 111.231 1078.26 110.771C1078.08 109.768 1076.88 109.335 1076.05 109.98C1075.91 110.094 1075.4 110.827 1074.92 111.61C1074.21 112.783 1074.07 113.125 1074.15 113.562C1074.31 114.499 1075.42 115.05 1076.17 114.571ZM1107.09 103.088C1107.9 101.932 1107.23 101.156 1104.71 100.344C1103.19 99.8515 1102.81 99.9015 1102.27 100.669C1101.9 101.202 1101.99 101.88 1102.49 102.327C1102.97 102.761 1105.84 103.774 1106.33 103.686C1106.56 103.646 1106.88 103.396 1107.09 103.088ZM1083.2 106.328C1084.05 105.91 1086.02 104.409 1086.12 104.096C1086.46 103.081 1085.65 102.093 1084.63 102.272C1083.93 102.395 1081.47 104.107 1081.31 104.575C1080.91 105.8 1082.07 106.877 1083.2 106.328ZM1118.72 98.9205C1118.37 98.6115 1117.43 97.8479 1116.64 97.2239L1115.19 96.0894L1117.19 95.7374L1119.18 95.3854L1120.76 96.358C1121.63 96.8931 1122.71 97.6329 1123.15 98.0021L1123.95 98.6735L1121.66 99.078L1119.36 99.4825L1118.72 98.9205ZM1096.43 101.162C1096.89 100.496 1096.81 99.8378 1096.2 99.338C1095.84 99.0389 1095.58 98.9915 1094.68 99.0494C1092.74 99.174 1091.9 99.3695 1091.53 99.7873C1090.84 100.55 1091.25 101.82 1092.23 102.008C1092.49 102.056 1093.45 102.006 1094.37 101.897L1096.05 101.698L1096.43 101.162ZM1109.65 93.0453C1108.63 92.5876 1107.31 92.0585 1106.73 91.8694C1106.15 91.6806 1105.69 91.4953 1105.72 91.4578C1105.75 91.4203 1106.62 91.4924 1107.67 91.6182C1109.61 91.8523 1112.56 92.5216 1113.9 93.0345L1114.65 93.3224L1113.09 93.6001L1111.52 93.8777L1109.65 93.0453Z" fill="#7D27EB"/>
<path fill-rule="evenodd" clip-rule="evenodd" d="M1104.82 141.177C1105.23 140.459 1105.86 139.356 1106.22 138.727C1106.58 138.097 1107.22 136.97 1107.65 136.221L1108.44 134.86L1107.75 130.975C1107.09 127.212 1107.06 127.085 1106.84 126.893C1106.62 126.698 1106.57 126.703 1103.99 127.157L1101.37 127.619L1102.68 135.057C1103.41 139.148 1104.01 142.492 1104.03 142.489C1104.04 142.486 1104.4 141.896 1104.82 141.177ZM1105.32 124.989C1103.84 123.834 1100.23 121.071 1099.66 120.653L1099.16 120.286L1095.83 120.874L1092.49 121.461L1092.31 121.76L1092.13 122.059L1092.66 125.07L1093.2 128.082L1099.75 126.923L1106.31 125.764L1105.32 124.989Z" fill="#7D27EB"/>
<path fill-rule="evenodd" clip-rule="evenodd" d="M1101.34 134.161L1101.55 133.861L1101.03 130.871L1100.5 127.882L1093.91 129.018L1087.33 130.154L1087.98 130.649C1089.4 131.714 1092.31 133.947 1093.36 134.768L1094.46 135.631L1097.79 135.046L1101.13 134.461L1101.34 134.161ZM1091.03 120.767L1089.7 113.251L1089.26 114.036C1088.38 115.608 1086.47 118.951 1085.85 120.018L1085.21 121.113L1085.89 124.943L1086.56 128.772L1086.83 128.991L1087.1 129.21L1089.73 128.747L1092.36 128.284L1091.03 120.767Z" fill="#7D27EB"/>
<path fill-rule="evenodd" clip-rule="evenodd" d="M895.116 565.945C903.608 577.237 915.527 585.162 929.733 588.961C946.03 593.32 963.717 591.878 980.701 584.806C985.362 582.866 994.015 577.865 998.149 574.722C1006.07 568.702 1012.53 561.82 1017.66 553.95C1032.49 531.181 1033.56 504.069 1020.44 483.6C1017.35 478.782 1017.64 479.288 1015.01 474.203C1004.47 453.81 982.521 441.348 957.032 441.284C933.984 441.227 910.932 451.699 895.199 469.376C879.695 486.797 873.105 509.011 877.333 529.608C878.858 537.039 881.225 542.897 885.225 549.136C888.146 553.692 887.709 552.942 891.132 559.271C892.59 561.968 894.383 564.971 895.116 565.945ZM885.386 538.262C877.964 520.371 880.694 499.092 892.713 481.156C898.715 472.199 905.024 465.926 914.387 459.604C921.21 454.997 929.795 451.121 937.835 449.016C950.241 445.767 962.845 445.689 974.593 448.787C1005.97 457.062 1022.98 486.819 1014.35 518.337C1007.63 542.849 986.106 563.44 960.068 570.258C933.225 577.287 906.859 569.382 891.924 549.826C890.001 547.309 886.764 541.582 885.386 538.262ZM904.047 567.9C904.301 568.032 905.634 568.773 907.009 569.546C909.437 570.911 909.539 571.006 910.6 572.89L911.692 574.83L910.244 573.804C907.279 571.702 902.376 567.031 904.047 567.9ZM922.76 575.721L927.928 577.048L929.956 580.578L931.985 584.109L928.843 583.214C927.114 582.722 924.649 581.875 923.364 581.332L921.027 580.345L919.309 577.37L917.591 574.394L922.76 575.721ZM899.384 539.893C899.694 540.058 900.428 540.131 901.017 540.055C901.935 539.937 902.18 539.797 902.73 539.076C903.561 537.986 903.396 537.079 901.782 533.875C900.025 530.387 899.101 529.781 897.206 530.875C896.143 531.489 895.841 531.976 895.889 532.999C895.945 534.222 898.612 539.481 899.384 539.893ZM908.798 551.104C909.82 552.172 914.135 554.935 914.75 554.915C916.738 554.851 917.987 552.792 917.037 551.146C916.471 550.165 911.932 546.85 910.919 546.677C908.759 546.308 907.242 549.476 908.798 551.104ZM894.098 520.453C894.97 520.769 895.408 520.739 896.151 520.31C896.671 520.01 897.198 519.514 897.323 519.21C897.591 518.557 897.602 512.902 897.338 511.976C897.067 511.025 895.629 510.241 894.538 510.449C892.566 510.825 892.036 512.561 892.333 517.675C892.438 519.47 892.753 519.966 894.098 520.453ZM937.655 577.914C939.416 577.979 942.088 577.993 943.595 577.945L946.333 577.857L948.719 581.982C950.032 584.251 951.045 586.142 950.972 586.184C950.685 586.35 944.495 586.13 941.793 585.857L938.944 585.57L936.699 581.683L934.455 577.795L937.655 577.914ZM927.341 560.465C928.43 561.291 934.148 562.373 934.957 561.906C936.377 561.086 936.795 559.608 936.002 558.207C935.522 557.358 935.173 557.21 931.989 556.511C928.981 555.85 928.378 555.817 927.591 556.271C925.94 557.224 925.816 559.308 927.341 560.465ZM897.412 500.465C899.132 500.926 899.99 500.136 901.488 496.715C902.962 493.348 903.022 492.256 901.786 491.307C900.844 490.585 899.751 490.463 898.854 490.981C898.143 491.392 895.985 495.705 895.61 497.465C895.328 498.792 896.125 500.12 897.412 500.465ZM952.514 577.227C952.721 577.167 954.492 576.803 956.449 576.417L960.006 575.716L962.519 580.069L965.032 584.421L961.877 584.968C960.141 585.268 958.335 585.571 957.862 585.64L957.004 585.766L954.57 581.55C952.647 578.22 952.216 577.312 952.514 577.227ZM948.411 562.231C949.715 562.579 954.412 561.902 955.669 561.185C957.354 560.223 957.06 557.362 955.209 556.704C954.799 556.558 953.004 556.66 951.22 556.93C948.332 557.367 947.902 557.506 947.288 558.193C946.568 559 946.439 560.429 946.998 561.397C947.17 561.694 947.806 562.07 948.411 562.231ZM907.598 482.831C908.993 483.481 909.685 483.136 912.131 480.569C913.367 479.272 914.5 477.828 914.649 477.36C915.039 476.13 914.12 474.632 912.749 474.265C911.843 474.022 911.576 474.091 910.611 474.814C908.752 476.206 906.105 479.291 906.029 480.153C905.94 481.165 906.66 482.394 907.598 482.831ZM966.011 573.946C966.453 573.825 968.127 573.227 969.73 572.617L972.647 571.51L975.256 575.869L977.866 580.228L976.429 580.833C975.638 581.165 973.943 581.798 972.661 582.239L970.331 583.042L967.769 578.605L965.207 574.167L966.011 573.946ZM968.19 556.583C969.221 556.86 969.521 556.778 972.068 555.529C975.081 554.051 975.834 553.38 975.949 552.069C976.06 550.8 975.344 549.847 974.013 549.49C973.006 549.22 972.648 549.288 971.463 549.973C970.704 550.411 969.346 551.098 968.444 551.5C966.873 552.2 966.791 552.282 966.476 553.457C966.045 555.066 966.651 556.171 968.19 556.583ZM978.907 568.484C979.817 568.078 981.405 567.259 982.436 566.664L984.309 565.582L986.769 570.003L989.229 574.425L987.753 575.387C986.941 575.917 985.405 576.752 984.339 577.245L982.4 578.14L979.826 573.681L977.252 569.222L978.907 568.484ZM923.898 469.836C924.855 470.006 925.334 469.856 927.825 468.6C931.018 466.989 931.636 466.368 931.522 464.882C931.431 463.695 930.448 462.708 929.217 462.567C928.48 462.483 927.755 462.771 925.273 464.133L922.232 465.802L922.027 466.87C921.736 468.391 922.49 469.586 923.898 469.836ZM991.051 560.718C992.383 559.719 993.751 558.656 994.089 558.355L994.705 557.808L997.263 562.24L999.822 566.672L997.211 568.748C995.775 569.889 994.399 570.938 994.154 571.077C993.746 571.309 993.488 570.951 991.168 566.932L988.628 562.533L991.051 560.718ZM983.874 544.5C984.663 545.16 985.946 545.335 986.719 544.889C987.633 544.361 990.432 541.573 991.279 540.346C992.335 538.817 991.545 536.812 989.722 536.392C988.607 536.135 987.815 536.627 985.457 539.041C982.911 541.646 982.433 543.295 983.874 544.5ZM941.922 462.287C942.654 462.851 943.569 462.866 946.694 462.367C949.731 461.882 950.666 461.403 951.05 460.132C951.375 459.054 950.659 457.565 949.572 457.059C948.633 456.621 942.536 457.547 941.825 458.235C940.732 459.294 940.782 461.41 941.922 462.287ZM998.979 553.92C999.973 552.88 1003.61 548.946 1003.84 548.662C1004.08 548.369 1004.52 549 1006.63 552.659C1008.01 555.048 1009.11 557.022 1009.07 557.045C1009.03 557.068 1008.08 558.128 1006.96 559.401C1005.84 560.673 1004.65 561.972 1004.32 562.286L1003.71 562.857L1001.21 558.527C999.341 555.281 998.781 554.127 998.979 553.92ZM996.929 528.471C998.68 529.105 999.455 528.458 1001.01 525.062C1002.81 521.131 1002.66 519.597 1000.43 518.999C998.649 518.522 997.982 519.086 996.524 522.305C995.836 523.824 995.21 525.421 995.134 525.854C994.937 526.977 995.641 528.004 996.929 528.471ZM1008.22 543.009C1008.88 542.246 1011.86 537.491 1013.09 535.245L1013.79 533.965L1016.1 537.98L1018.42 541.995L1017.02 544.699C1016.25 546.185 1014.93 548.52 1014.09 549.888L1012.56 552.373L1010.07 548.06L1007.58 543.747L1008.22 543.009ZM962.23 461.705C962.521 461.927 964.246 462.417 966.065 462.792C968.861 463.369 969.511 463.394 970.269 462.956C971.922 462.002 971.91 459.593 970.247 458.56C969.954 458.378 968.335 457.951 966.65 457.612C964.123 457.103 963.433 457.083 962.713 457.499C961.168 458.391 960.905 460.688 962.23 461.705ZM1002.3 508.831C1004.85 509.516 1005.79 507.829 1005.6 502.872C1005.49 499.869 1005.16 499.242 1003.47 498.788C1002.29 498.472 1001.15 499.062 1000.68 500.23C1000.23 501.362 1000.28 507.055 1000.75 507.871C1000.97 508.247 1001.62 508.649 1002.3 508.831ZM981.261 468.801C982.547 470.042 986.455 472.551 987.071 472.531C989.073 472.466 990.295 470.404 989.326 468.726C988.663 467.576 984.065 464.331 983.142 464.361C980.727 464.439 979.57 467.169 981.261 468.801ZM1017.1 526.648C1017.41 525.829 1018.16 523.684 1018.75 521.882L1019.82 518.605L1021.72 521.897L1023.62 525.188L1022.92 528.6C1022.53 530.476 1021.92 532.842 1021.55 533.857L1020.88 535.702L1018.7 531.92L1016.52 528.138L1017.1 526.648ZM998.847 488.8C1000.32 489.195 1001.43 488.628 1001.92 487.232C1002.21 486.396 1002.13 485.925 1001.45 484.369C999.983 481.021 999.103 479.674 998.127 479.284C996.346 478.571 994.367 480.099 994.669 481.955C994.746 482.431 995.451 484.095 996.236 485.652L997.662 488.483L998.847 488.8ZM1021.63 506.898C1021.78 504.795 1021.87 502.138 1021.83 500.994C1021.79 499.849 1021.82 498.931 1021.91 498.953C1021.99 498.976 1022.42 500.566 1022.87 502.487C1023.71 506.065 1024.42 511.681 1024.37 514.373L1024.35 515.884L1022.85 513.303L1021.36 510.721L1021.63 506.898Z" fill="#A263F1"/>
<path fill-rule="evenodd" clip-rule="evenodd" d="M933.724 529.242C935.257 529.516 937.606 529.923 938.943 530.146C940.28 530.37 942.68 530.783 944.276 531.065L947.178 531.577L953.583 527.878C959.789 524.295 959.995 524.163 960.191 523.651C960.389 523.13 960.352 523.05 957.898 518.801L955.404 514.481L943.141 521.562C936.395 525.456 930.89 528.665 930.906 528.693C930.922 528.721 932.19 528.968 933.724 529.242ZM962.57 519.752C963.656 516.402 966.211 508.274 966.58 506.994L966.903 505.874L963.732 500.382L960.561 494.89L959.919 494.764L959.277 494.637L954.311 497.504L949.345 500.371L955.594 511.184L961.842 521.997L962.57 519.752Z" fill="#A263F1"/>
<path fill-rule="evenodd" clip-rule="evenodd" d="M943.857 518.62L944.523 518.804L949.452 515.958L954.382 513.112L948.156 502.235L941.93 491.359L941.48 492.833C940.51 496.009 938.445 502.576 937.67 504.948L936.856 507.444L940.024 512.94L943.192 518.436L943.857 518.62ZM960.846 491.868L973.238 484.709L971.571 484.433C968.232 483.88 961.12 482.664 958.842 482.257L956.506 481.84L950.19 485.482L943.874 489.123L943.662 489.742L943.45 490.362L945.952 494.695L948.454 499.028L960.846 491.868Z" fill="#A263F1"/>
<path fill-rule="evenodd" clip-rule="evenodd" d="M869.755 71.9452C871.883 62.7691 870.822 53.2865 866.675 44.4032C861.917 34.2127 853.601 25.7979 842.711 20.1545C839.723 18.6061 833.461 16.33 830.085 15.5651C823.616 14.0998 817.332 13.7479 811.116 14.5027C793.133 16.6862 778.828 27.7575 773.998 43.23C772.861 46.8722 772.994 46.5066 771.524 50.0276C765.627 64.1503 768.668 80.7005 779.558 93.7449C789.406 105.54 804.632 112.825 820.402 113.285C835.942 113.738 850.111 107.584 858.818 96.5982C861.96 92.6352 863.937 88.9157 865.409 84.1991C866.484 80.7555 866.288 81.2999 868.054 76.8395C868.806 74.9391 869.571 72.7366 869.755 71.9452ZM859.786 88.7767C853.83 100.234 841.793 107.958 827.483 109.507C820.337 110.28 814.43 109.746 807.189 107.673C801.912 106.163 796.254 103.44 791.733 100.236C784.758 95.2922 779.317 88.8892 775.865 81.5617C766.643 61.9894 774.551 40.5517 794.347 31.4553C809.744 24.3806 829.484 26.5503 844.124 36.926C859.216 47.6227 866.477 64.4753 862.891 80.4825C862.429 82.5434 860.892 86.6507 859.786 88.7767ZM866.926 66.5464C866.885 66.3597 866.691 65.3617 866.497 64.3285C866.154 62.5037 866.158 62.4107 866.666 61.0612L867.189 59.6722L867.285 60.8516C867.482 63.2664 867.198 67.7717 866.926 66.5464ZM862.901 53.6384L861.364 50.4304L862.298 47.8815L863.232 45.3325L864.121 47.3207C864.611 48.4143 865.235 50.0364 865.508 50.9253L866.005 52.5416L865.222 54.694L864.438 56.8464L862.901 53.6384ZM854.621 80.9292C854.573 80.7006 854.295 80.2942 854.004 80.0257C853.55 79.6077 853.374 79.5423 852.77 79.5706C851.857 79.6132 851.465 80.0866 850.52 82.2836C849.492 84.6756 849.578 85.407 850.949 85.9058C851.718 86.1858 852.096 86.1314 852.598 85.6686C853.199 85.1156 854.741 81.5002 854.621 80.9292ZM856.312 71.3175C856.42 70.338 855.982 66.9501 855.708 66.6444C854.823 65.6567 853.237 65.9012 852.803 67.0922C852.545 67.8012 852.797 71.5401 853.143 72.1315C853.88 73.3925 856.148 72.81 856.312 71.3175ZM846.958 91.9595C846.746 91.3786 846.543 91.168 846.005 90.9723C845.629 90.8355 845.15 90.7784 844.941 90.8452C844.493 90.9881 841.601 93.4055 841.241 93.9377C840.871 94.4834 841.087 95.5534 841.661 96.0216C842.698 96.868 843.811 96.3945 846.296 94.0512C847.168 93.2288 847.286 92.8553 846.958 91.9595ZM857.638 45.0916C856.917 44.1646 855.779 42.7937 855.109 42.0451L853.89 40.6842L854.974 37.6979C855.571 36.0554 856.102 34.7274 856.155 34.7468C856.363 34.8223 858.903 38.0781 859.921 39.5743L860.996 41.1526L859.972 43.9648L858.949 46.7768L857.638 45.0916ZM853.147 57.8361C853.102 56.9262 851.204 53.5423 850.619 53.3294C849.592 52.9554 848.658 53.3756 848.282 54.3806C848.054 54.9895 848.128 55.231 849.135 57.1567C850.087 58.9765 850.329 59.2988 850.898 59.5058C852.092 59.9405 853.209 59.1109 853.147 57.8361ZM835.33 98.8327C834.829 97.7565 834.057 97.6567 831.668 98.3579C829.318 99.0479 828.734 99.4854 828.779 100.523C828.814 101.314 829.22 101.924 829.869 102.16C830.384 102.347 833.511 101.601 834.57 101.038C835.369 100.614 835.706 99.6374 835.33 98.8327ZM850.92 37.7977C850.8 37.7172 849.856 36.9691 848.82 36.1352L846.938 34.6186L848.084 31.4702L849.23 28.3217L850.861 29.699C851.758 30.4566 852.687 31.2494 852.924 31.4609L853.357 31.8453L852.247 34.8948C851.37 37.304 851.091 37.9134 850.92 37.7977ZM845.02 46.3191C844.638 45.5038 842.28 43.3954 841.375 43.0609C840.162 42.6125 838.827 43.9883 839.284 45.2157C839.385 45.4877 840.206 46.3608 841.109 47.1561C842.569 48.4436 842.825 48.6042 843.439 48.6228C844.159 48.6447 844.944 48.0984 845.199 47.3979C845.278 47.183 845.197 46.6975 845.02 46.3191ZM821.96 101.187C821.694 100.196 821.221 99.9907 818.862 99.8414C817.67 99.766 816.447 99.8062 816.144 99.9309C815.349 100.258 814.978 101.369 815.378 102.227C815.642 102.794 815.791 102.901 816.574 103.084C818.082 103.437 820.792 103.467 821.264 103.136C821.82 102.747 822.139 101.853 821.96 101.187ZM843.461 32.3107C843.209 32.1372 842.186 31.5386 841.188 30.9805L839.373 29.9658L840.481 26.7652L841.589 23.5645L842.513 24.0393C843.022 24.3006 844.071 24.8951 844.846 25.3605L846.254 26.2068L845.086 29.4166L843.918 32.6265L843.461 32.3107ZM833.66 38.6381C833.359 37.9931 833.189 37.8751 831.459 37.1094C829.413 36.2038 828.748 36.1069 828.029 36.61C827.334 37.0969 827.154 37.8713 827.542 38.7042C827.836 39.3339 828.024 39.4876 828.881 39.7998C829.43 39.9995 830.363 40.3986 830.955 40.6868C831.986 41.189 832.062 41.1959 832.797 40.8533C833.804 40.3837 834.109 39.6011 833.66 38.6381ZM835.145 28.0653C834.547 27.7745 833.449 27.3144 832.703 27.0431L831.348 26.5498L832.552 23.399L833.755 20.2482L834.879 20.5895C835.498 20.7773 836.583 21.2037 837.291 21.5372L838.579 22.1434L837.405 25.369L836.231 28.5945L835.145 28.0653ZM808.339 98.4316C808.015 97.8695 807.733 97.6896 806.024 96.9556C803.833 96.0149 803.251 95.9656 802.541 96.6609C801.974 97.216 801.891 98.1409 802.347 98.8296C802.62 99.2423 803.077 99.4891 804.837 100.173L806.992 101.011L807.625 100.658C808.527 100.155 808.814 99.2577 808.339 98.4316ZM825.975 25.1914C824.894 24.9389 823.765 24.6961 823.466 24.6521L822.923 24.5722L824.09 21.3665L825.257 18.1608L827.436 18.6046C828.634 18.8486 829.759 19.102 829.936 19.1675C830.229 19.2764 830.156 19.5615 829.098 22.4687L827.94 25.6507L825.975 25.1914ZM820.768 35.8065C820.767 35.121 820.306 34.3902 819.747 34.1867C819.086 33.946 816.463 33.7117 815.473 33.8047C814.24 33.9209 813.554 35.1836 814.121 36.2942C814.468 36.9738 815.058 37.1677 817.301 37.3376C819.723 37.521 820.769 37.0588 820.768 35.8065ZM796.759 92.4616C796.733 91.8458 796.349 91.3723 794.756 89.9902C793.206 88.6467 792.561 88.3749 791.747 88.7238C791.058 89.0195 790.604 90.0229 790.811 90.7949C790.99 91.4624 794.075 94.1793 794.732 94.2474C795.741 94.3518 796.8 93.4192 796.759 92.4616ZM819.106 24.0557C818.149 23.9936 814.581 23.8217 814.337 23.8259C814.085 23.8304 814.219 23.3351 815.182 20.6883C815.811 18.9597 816.35 17.554 816.378 17.5644C816.407 17.5748 817.355 17.6057 818.486 17.6328C819.616 17.6601 820.789 17.7104 821.091 17.7448L821.64 17.8073L820.5 20.9397C819.646 23.2874 819.296 24.068 819.106 24.0557ZM806.987 36.0081C806.561 34.8421 805.898 34.7238 803.499 35.3857C800.72 36.1523 800 36.8844 800.65 38.2787C801.169 39.3933 801.744 39.492 804.012 38.8573C805.083 38.5575 806.166 38.1927 806.42 38.0461C807.078 37.6658 807.301 36.8661 806.987 36.0081ZM809.574 24.0132C808.902 24.0041 805.197 24.519 803.523 24.8543L802.57 25.0453L803.627 22.1417L804.685 19.2381L806.666 18.7947C807.755 18.5511 809.513 18.2234 810.571 18.0666L812.495 17.7818L811.36 20.9019L810.224 24.0219L809.574 24.0132ZM787.759 82.3398C787.749 82.096 787.259 81.005 786.671 79.9152C785.768 78.2403 785.502 77.8975 784.954 77.6978C783.758 77.2627 782.533 78.3014 782.718 79.593C782.751 79.821 783.227 80.8306 783.775 81.8365C784.598 83.345 784.884 83.7059 785.405 83.8955C786.522 84.3021 787.808 83.4523 787.759 82.3398ZM794.657 41.6831C793.912 40.0856 792.65 40.3304 790.197 42.5482C788.711 43.8918 788.532 44.328 789.026 45.389C789.37 46.1262 790.159 46.4551 790.956 46.1931C791.729 45.9394 794.614 43.4732 794.829 42.8833C794.928 42.6112 794.856 42.1091 794.657 41.6831ZM783.228 69.5797C783.311 68.3911 782.918 65.3204 782.643 65.0142C781.752 64.0196 780.175 64.279 779.734 65.493C779.431 66.3249 779.744 70.063 780.155 70.5217C781.229 71.7218 783.119 71.1425 783.228 69.5797ZM797.414 26.4903C796.86 26.6787 795.446 27.2183 794.273 27.6897L792.141 28.5468L793.007 26.1658L793.874 23.7848L795.916 22.6797C797.039 22.0721 798.511 21.3725 799.186 21.1252L800.415 20.6758L799.419 23.4117L798.423 26.1477L797.414 26.4903ZM785.906 52.0284C785.476 51.1075 784.712 50.7843 783.789 51.1331C783.237 51.3416 783.03 51.5827 782.527 52.5981C781.446 54.7819 781.135 55.8086 781.354 56.4743C781.753 57.6894 783.382 58.045 784.2 57.0959C784.41 56.8524 784.958 55.7792 785.417 54.7113L786.251 52.7697L785.906 52.0284ZM785.385 32.6377C784.248 33.4633 782.853 34.5566 782.285 35.0672C781.718 35.5778 781.234 35.9532 781.209 35.9013C781.185 35.8494 781.811 34.946 782.6 33.8936C784.07 31.9338 786.634 29.1656 788.027 28.034L788.809 27.3994L788.131 29.2681L787.453 31.1369L785.385 32.6377Z" fill="#D2B4F8"/>
<path fill-rule="evenodd" clip-rule="evenodd" d="M834.466 67.9564C833.949 67.0559 833.15 65.6821 832.692 64.9035C832.233 64.1249 831.416 62.7222 830.875 61.7865L829.893 60.0852L825.259 58.3987C820.77 56.7648 820.615 56.7161 820.269 56.8359C819.918 56.9574 819.893 57.0111 818.775 60.0846L817.637 63.2097L826.508 66.4386C831.388 68.2145 835.386 69.6509 835.393 69.6306C835.401 69.6104 834.983 68.8569 834.466 67.9564ZM817.258 57.2916C815.082 58.1725 809.837 60.3507 809.025 60.7107L808.314 61.0256L806.868 64.9987L805.422 68.9718L805.633 69.3537L805.844 69.7356L809.436 71.043L813.028 72.3504L815.872 64.5258L818.717 56.7012L817.258 57.2916Z" fill="#D2B4F8"/>
<path fill-rule="evenodd" clip-rule="evenodd" d="M824.699 67.3331L824.508 66.9144L820.942 65.6166L817.376 64.3187L814.489 72.159L811.603 79.9993L812.549 79.5975C814.587 78.7319 818.825 76.9726 820.368 76.3516L821.992 75.698L823.441 71.7248L824.891 67.7516L824.699 67.3331ZM803.757 70.1211L794.79 66.8605L795.364 67.8301C796.512 69.7718 798.939 73.9247 799.708 75.2627L800.496 76.6346L805.062 78.2996L809.628 79.9646L810.035 79.8074L810.442 79.6504L811.583 76.5159L812.724 73.3816L803.757 70.1211Z" fill="#D2B4F8"/>
<defs>
<linearGradient id="paint0_linear" x1="727.5" y1="2.99976" x2="727.5" y2="654" gradientUnits="userSpaceOnUse">
<stop stop-color="#6600E8"/>
<stop offset="1" stop-color="white"/>
</linearGradient>
</defs>
</svg>
