<svg width="375" height="922" viewBox="0 0 375 922" fill="none" xmlns="http://www.w3.org/2000/svg">
<path d="M-5.4834 919.223C-5.4834 919.223 453.128 585.904 182.306 459.421C-88.5156 332.938 382 2.00008 382 2.00008" stroke="url(#paint0_linear)" stroke-width="4.7617"/>
<path fill-rule="evenodd" clip-rule="evenodd" d="M306.14 835.812C308.935 841.31 313.458 845.619 319.277 848.329C325.952 851.438 333.664 852.159 341.501 850.406C343.651 849.925 347.75 848.432 349.765 847.394C353.626 845.407 356.926 842.938 359.726 839.944C367.827 831.28 370.342 819.707 366.253 809.914C365.29 807.609 365.378 807.848 364.633 805.464C361.647 795.898 353.156 788.878 342.205 786.918C332.302 785.147 321.599 787.901 313.496 794.307C305.511 800.62 300.995 809.67 301.251 818.844C301.343 822.154 301.917 824.851 303.163 827.837C304.073 830.016 303.942 829.661 304.934 832.641C305.356 833.911 305.9 835.338 306.14 835.812ZM304.057 823.175C302.222 814.922 305.009 805.981 311.534 799.182C314.793 795.787 317.981 793.569 322.485 791.561C325.767 790.098 329.751 789.082 333.366 788.787C338.946 788.331 344.369 789.252 349.185 791.474C362.047 797.41 367.103 811.491 361.002 824.384C356.257 834.412 345.443 841.632 333.734 842.589C321.662 843.576 310.928 838.179 305.99 828.641C305.355 827.413 304.397 824.706 304.057 823.175ZM309.832 837.329C309.931 837.405 310.448 837.825 310.98 838.261C311.92 839.032 311.957 839.08 312.27 839.971L312.593 840.887L312.048 840.337C310.933 839.208 309.179 836.829 309.832 837.329ZM317.283 842.109L319.404 843.071L320.008 844.743L320.612 846.414L319.329 845.791C318.624 845.449 317.628 844.898 317.117 844.567L316.187 843.966L315.674 842.556L315.162 841.147L317.283 842.109ZM309.95 824.937C310.071 825.031 310.381 825.118 310.64 825.13C311.043 825.149 311.159 825.107 311.45 824.839C311.89 824.434 311.888 824.031 311.437 822.531C310.946 820.899 310.595 820.569 309.697 820.895C309.194 821.078 309.027 821.265 308.97 821.708C308.902 822.238 309.649 824.701 309.95 824.937ZM313.147 830.469C313.505 831.006 315.151 832.521 315.417 832.559C316.276 832.682 316.969 831.891 316.685 831.112C316.516 830.647 314.816 828.878 314.394 828.727C313.494 828.405 312.601 829.651 313.147 830.469ZM309.151 816.18C309.502 816.382 309.693 816.402 310.045 816.273C310.291 816.184 310.555 816.011 310.632 815.889C310.796 815.629 311.23 813.199 311.186 812.781C311.142 812.352 310.583 811.906 310.099 811.913C309.222 811.925 308.863 812.631 308.603 814.852C308.512 815.631 308.61 815.868 309.151 816.18ZM323.519 844.181C324.271 844.342 325.419 844.551 326.07 844.644L327.254 844.814L327.967 846.768C328.359 847.843 328.652 848.733 328.617 848.745C328.481 848.795 325.837 848.231 324.696 847.909L323.493 847.57L322.823 845.729L322.153 843.887L323.519 844.181ZM320.408 835.899C320.814 836.336 323.19 837.235 323.573 837.095C324.245 836.851 324.537 836.247 324.303 835.584C324.16 835.183 324.022 835.093 322.706 834.551C321.463 834.039 321.206 833.979 320.834 834.115C320.052 834.399 319.841 835.286 320.408 835.899ZM312.091 807.838C312.795 808.167 313.224 807.893 314.127 806.535C315.016 805.2 315.124 804.735 314.665 804.234C314.315 803.852 313.854 803.717 313.43 803.871C313.093 803.994 311.838 805.684 311.544 806.412C311.322 806.961 311.564 807.593 312.091 807.838ZM329.959 845.012C330.052 845.002 330.841 844.98 331.711 844.962L333.294 844.93L334.044 846.992L334.794 849.053L333.396 849.049C332.628 849.047 331.828 849.04 331.62 849.034L331.241 849.023L330.515 847.026C329.941 845.449 329.824 845.026 329.959 845.012ZM329.331 838.255C329.866 838.503 331.936 838.568 332.531 838.355C333.328 838.07 333.419 836.817 332.673 836.394C332.507 836.3 331.728 836.208 330.941 836.189C329.666 836.158 329.471 836.185 329.155 836.434C328.784 836.726 328.62 837.331 328.787 837.789C328.839 837.93 329.084 838.139 329.331 838.255ZM317.806 801.031C318.356 801.416 318.68 801.32 319.926 800.402C320.555 799.938 321.152 799.403 321.251 799.213C321.513 798.714 321.231 798.001 320.669 797.739C320.298 797.566 320.179 797.575 319.709 797.813C318.804 798.27 317.432 799.396 317.335 799.76C317.22 800.189 317.436 800.772 317.806 801.031ZM336.009 844.625C336.208 844.606 336.973 844.476 337.709 844.335L339.046 844.08L339.837 846.152L340.629 848.224L339.965 848.374C339.6 848.457 338.823 848.601 338.239 848.694L337.177 848.862L336.412 846.76L335.647 844.659L336.009 844.625ZM338.262 837.326C338.684 837.523 338.819 837.511 340.009 837.167C341.416 836.76 341.791 836.529 341.939 835.974C342.083 835.437 341.848 834.973 341.302 834.719C340.89 834.526 340.731 834.528 340.17 834.733C339.81 834.863 339.174 835.056 338.756 835.16C338.028 835.342 337.986 835.371 337.762 835.852C337.455 836.511 337.631 837.032 338.262 837.326ZM341.967 843.254C342.389 843.149 343.133 842.917 343.621 842.739L344.509 842.416L345.231 844.503L345.953 846.59L345.246 846.892C344.857 847.058 344.133 847.301 343.637 847.432L342.736 847.67L341.968 845.558L341.199 843.446L341.967 843.254ZM325.797 796.68C326.196 796.826 326.413 796.797 327.579 796.446C329.074 795.996 329.387 795.776 329.45 795.128C329.501 794.611 329.153 794.112 328.635 793.959C328.324 793.867 327.991 793.935 326.821 794.333L325.387 794.82L325.218 795.263C324.978 795.895 325.211 796.466 325.797 796.68ZM347.775 840.836C348.424 840.508 349.092 840.155 349.26 840.051L349.566 839.863L350.33 841.961L351.094 844.06L349.815 844.755C349.111 845.137 348.44 845.483 348.324 845.525C348.131 845.593 348.047 845.42 347.355 843.516L346.596 841.433L347.775 840.836ZM345.919 833.321C346.208 833.664 346.747 833.837 347.113 833.704C347.546 833.546 348.96 832.56 349.418 832.096C349.987 831.519 349.8 830.598 349.048 830.279C348.588 830.084 348.21 830.235 347.014 831.094C345.722 832.021 345.392 832.694 345.919 833.321ZM334.117 794.801C334.39 795.099 334.782 795.175 336.162 795.197C337.505 795.219 337.943 795.084 338.204 794.567C338.426 794.128 338.231 793.434 337.802 793.134C337.432 792.874 334.741 792.81 334.383 793.052C333.833 793.425 333.694 794.338 334.117 794.801ZM351.698 838.515C352.205 838.144 354.067 836.728 354.187 836.623C354.311 836.515 354.453 836.82 355.083 838.553C355.495 839.685 355.817 840.616 355.798 840.623C355.78 840.63 355.291 841.013 354.712 841.476C354.134 841.938 353.525 842.406 353.359 842.516L353.057 842.716L352.31 840.665C351.751 839.128 351.598 838.589 351.698 838.515ZM352.746 827.42C353.451 827.826 353.833 827.606 354.758 826.264C355.829 824.71 355.882 824.04 354.969 823.614C354.24 823.274 353.91 823.466 353.039 824.739C352.629 825.34 352.239 825.979 352.173 826.159C352.003 826.627 352.228 827.122 352.746 827.42ZM356.497 834.525C356.838 834.247 358.479 832.429 359.178 831.557L359.576 831.059L360.267 832.961L360.959 834.862L360.152 835.918C359.708 836.499 358.965 837.403 358.5 837.927L357.654 838.88L356.911 836.837L356.167 834.794L356.497 834.525ZM342.891 796.09C342.999 796.208 343.704 796.549 344.457 796.848C345.615 797.308 345.893 797.368 346.252 797.238C347.035 796.953 347.212 795.916 346.576 795.346C346.463 795.246 345.8 794.939 345.101 794.666C344.054 794.256 343.759 794.195 343.417 794.319C342.686 794.585 342.399 795.553 342.891 796.09ZM356.542 819.385C357.588 819.872 358.118 819.218 358.415 817.074C358.595 815.775 358.501 815.48 357.807 815.156C357.324 814.931 356.79 815.098 356.5 815.565C356.22 816.017 355.81 818.469 355.951 818.855C356.016 819.033 356.263 819.255 356.542 819.385ZM350.534 800.583C350.993 801.214 352.482 802.589 352.749 802.627C353.614 802.751 354.296 801.957 354.007 801.162C353.808 800.617 352.078 798.874 351.679 798.817C350.635 798.667 349.931 799.753 350.534 800.583ZM361.553 828.165C361.752 827.837 362.234 826.971 362.624 826.242L363.333 824.914L363.9 826.473L364.468 828.032L363.909 829.446C363.601 830.223 363.157 831.193 362.922 831.602L362.495 832.344L361.843 830.553L361.191 828.762L361.553 828.165ZM356.578 810.513C357.181 810.794 357.7 810.635 358.016 810.071C358.205 809.734 358.208 809.526 358.032 808.805C357.656 807.255 357.379 806.609 356.989 806.367C356.278 805.926 355.311 806.433 355.3 807.253C355.297 807.464 355.474 808.233 355.694 808.962L356.092 810.287L356.578 810.513ZM365 820.019C365.222 819.126 365.462 817.991 365.532 817.496C365.601 817.001 365.686 816.609 365.72 816.625C365.754 816.641 365.821 817.357 365.868 818.217C365.956 819.819 365.834 822.286 365.612 823.44L365.487 824.088L365.04 822.865L364.594 821.642L365 820.019Z" fill="#5801C8"/>
<path fill-rule="evenodd" clip-rule="evenodd" d="M325.519 822.961C326.157 823.195 327.136 823.548 327.694 823.745C328.251 823.943 329.252 824.302 329.916 824.544L331.125 824.984L334.159 823.88C337.098 822.81 337.197 822.769 337.319 822.563C337.444 822.355 337.434 822.317 336.702 820.305L335.957 818.259L330.149 820.373C326.954 821.536 324.344 822.498 324.349 822.511C324.354 822.525 324.88 822.727 325.519 822.961ZM338.638 821.068C339.359 819.71 341.073 816.41 341.328 815.888L341.552 815.431L340.605 812.83L339.659 810.228L339.392 810.125L339.126 810.023L336.774 810.879L334.422 811.735L336.288 816.856L338.155 821.978L338.638 821.068Z" fill="#5801C8"/>
<path fill-rule="evenodd" clip-rule="evenodd" d="M330.68 819.163L330.952 819.292L333.287 818.443L335.621 817.593L333.769 812.446L331.918 807.298L331.612 807.898C330.954 809.19 329.569 811.856 329.057 812.817L328.517 813.828L329.462 816.431L330.408 819.034L330.68 819.163ZM340.01 808.951L345.88 806.813L345.184 806.568C343.791 806.077 340.826 805.016 339.877 804.668L338.905 804.312L335.914 805.398L332.923 806.485L332.785 806.735L332.647 806.985L333.394 809.037L334.141 811.089L340.01 808.951Z" fill="#5801C8"/>
<path fill-rule="evenodd" clip-rule="evenodd" d="M92.2631 229.272C90.9557 224.981 88.2607 221.323 84.4355 218.648C80.0474 215.578 74.6147 214.088 68.7804 214.353C67.1796 214.426 64.0554 214.978 62.4808 215.467C59.4644 216.403 56.7891 217.754 54.4055 219.545C47.5095 224.727 44.2465 232.698 45.9384 240.229C46.3367 242.001 46.3046 241.819 46.5366 243.621C47.4672 250.849 52.6619 256.95 60.2583 259.736C67.1274 262.256 75.1411 261.634 81.7534 258.069C88.2698 254.556 92.6472 248.645 93.6225 242.042C93.9745 239.66 93.9041 237.655 93.3884 235.36C93.0118 233.684 93.0608 233.955 92.7268 231.695C92.5845 230.732 92.3758 229.642 92.2631 229.272ZM92.1597 238.586C92.4313 244.729 89.3065 250.78 83.7739 254.826C81.0111 256.846 78.4481 258.032 74.9685 258.901C72.433 259.535 69.4514 259.759 66.8245 259.514C62.7709 259.136 59.0026 257.791 55.8345 255.591C47.3721 249.716 45.5291 238.992 51.5268 230.528C56.1915 223.945 64.8484 220.14 73.3559 220.933C82.1264 221.751 89.133 226.972 91.4651 234.427C91.7653 235.386 92.1093 237.446 92.1597 238.586ZM89.8111 227.719C89.7496 227.652 89.4323 227.286 89.1062 226.906C88.5301 226.236 88.51 226.196 88.3981 225.519L88.2829 224.822L88.6034 225.285C89.2596 226.234 90.2151 228.159 89.8111 227.719ZM85.0782 223.354L83.6805 222.397L83.4587 221.124L83.2369 219.85L84.0772 220.459C84.5393 220.793 85.1828 221.313 85.5072 221.615L86.097 222.163L86.2864 223.237L86.4758 224.311L85.0782 223.354ZM88.1611 236.58C88.0868 236.497 87.8756 236.395 87.6916 236.354C87.4051 236.29 87.3166 236.305 87.0745 236.46C86.7081 236.695 86.6589 236.984 86.7925 238.115C86.938 239.346 87.1477 239.627 87.8317 239.506C88.2156 239.439 88.3585 239.326 88.4554 239.016C88.5713 238.645 88.3468 236.787 88.1611 236.58ZM86.5701 232.214C86.3813 231.784 85.3941 230.491 85.2084 230.43C84.6084 230.234 84.0123 230.712 84.1171 231.307C84.1795 231.66 85.1736 233.142 85.4569 233.304C86.0611 233.648 86.8576 232.868 86.5701 232.214ZM87.6275 242.953C87.4017 242.764 87.2676 242.725 86.9993 242.773C86.8117 242.806 86.6007 242.896 86.5303 242.973C86.3796 243.139 85.7623 244.825 85.7405 245.13C85.7181 245.443 86.0619 245.833 86.41 245.889C87.0391 245.991 87.3855 245.531 87.8522 243.973C88.0159 243.426 87.9758 243.244 87.6275 242.953ZM80.8728 221.083C80.3547 220.872 79.559 220.578 79.1045 220.429L78.2781 220.158L78.0141 218.668C77.8689 217.849 77.7719 217.175 77.7985 217.17C77.9021 217.152 79.7247 217.89 80.5009 218.264L81.3198 218.659L81.5673 220.062L81.8147 221.466L80.8728 221.083ZM82.0551 227.408C81.82 227.043 80.2318 226.099 79.9399 226.151C79.4271 226.241 79.1419 226.637 79.2263 227.141C79.2773 227.446 79.3654 227.528 80.2392 228.083C81.0648 228.606 81.2413 228.682 81.5251 228.632C82.1211 228.527 82.3843 227.919 82.0551 227.408ZM84.4687 248.556C84.0056 248.231 83.6638 248.374 82.8456 249.232C82.0404 250.076 81.904 250.395 82.1697 250.812C82.3722 251.13 82.6849 251.285 83.0088 251.228C83.2655 251.183 84.3775 250.13 84.6803 249.646C84.9088 249.281 84.8151 248.798 84.4687 248.556ZM76.3659 219.675C76.2975 219.67 75.7298 219.586 75.1043 219.489L73.9669 219.312L73.6899 217.741L73.4128 216.169L74.4134 216.349C74.9637 216.448 75.5355 216.554 75.6838 216.584L75.9536 216.64L76.2219 218.162C76.4339 219.364 76.4641 219.681 76.3659 219.675ZM75.9617 224.593C75.6103 224.348 74.1358 224.04 73.6831 224.117C73.076 224.221 72.8529 225.107 73.3336 225.504C73.4402 225.592 73.9866 225.757 74.5481 225.87C75.457 226.053 75.6005 226.058 75.8583 225.92C76.1606 225.757 76.3542 225.345 76.2926 224.995C76.2737 224.888 76.1247 224.707 75.9617 224.593ZM79.5155 252.71C79.1702 252.364 78.9261 252.392 77.9179 252.892C77.4083 253.145 76.9135 253.453 76.8183 253.576C76.5682 253.901 76.6798 254.447 77.049 254.706C77.293 254.877 77.3798 254.885 77.7464 254.774C78.4522 254.561 79.5767 253.928 79.6927 253.679C79.8292 253.387 79.7479 252.942 79.5155 252.71ZM71.9836 219.188C71.8386 219.176 71.2743 219.173 70.7297 219.18L69.7396 219.194L69.4344 217.61L69.1293 216.027L69.6235 216.002C69.8954 215.989 70.4699 215.984 70.9001 215.992L71.6824 216.006L71.9648 217.607L72.2473 219.209L71.9836 219.188ZM69.4483 224.131C69.1707 223.936 69.0725 223.928 68.177 224.024C67.1177 224.138 66.8202 224.256 66.6436 224.635C66.4727 225.001 66.5828 225.363 66.9413 225.614C67.2123 225.804 67.3264 225.823 67.7544 225.747C68.0282 225.699 68.508 225.641 68.8206 225.619C69.3653 225.581 69.3986 225.566 69.62 225.249C69.9234 224.816 69.8627 224.421 69.4483 224.131ZM67.5435 219.417C67.2279 219.439 66.6653 219.511 66.2933 219.577L65.617 219.696L65.3631 218.11L65.1094 216.524L65.6542 216.397C65.9539 216.328 66.5029 216.245 66.8744 216.214L67.5498 216.157L67.8336 217.767L68.1174 219.377L67.5435 219.417ZM73.2425 254.816C72.9753 254.662 72.8161 254.655 71.9366 254.759C70.8092 254.893 70.5575 255.011 70.4302 255.467C70.3286 255.83 70.5145 256.232 70.8664 256.407C71.0773 256.512 71.3246 256.505 72.2131 256.368L73.3014 256.201L73.4783 255.904C73.7302 255.482 73.6352 255.044 73.2425 254.816ZM63.0777 220.415C62.5719 220.568 62.0485 220.737 61.9149 220.79L61.6719 220.886L61.3899 219.287L61.1078 217.687L62.112 217.351C62.6643 217.166 63.1886 217.003 63.2769 216.988C63.4237 216.963 63.4617 217.098 63.7176 218.549L63.9975 220.137L63.0777 220.415ZM63.4579 226.032C63.2942 225.75 62.9304 225.558 62.6514 225.607C62.3214 225.665 61.1838 226.193 60.7977 226.467C60.317 226.809 60.3349 227.493 60.8331 227.816C61.1378 228.014 61.4274 227.953 62.393 227.489C63.4352 226.988 63.7567 226.548 63.4579 226.032ZM67.0461 255.111C66.8888 254.864 66.6177 254.76 65.6315 254.569C64.6726 254.384 64.3417 254.426 64.0893 254.763C63.8753 255.05 63.9272 255.571 64.1963 255.84C64.429 256.073 66.3483 256.459 66.6351 256.331C67.0761 256.133 67.2909 255.497 67.0461 255.111ZM59.9749 221.582C59.5654 221.784 58.053 222.563 57.9536 222.623C57.8509 222.685 57.788 222.449 57.5551 221.128C57.403 220.265 57.2903 219.557 57.3045 219.555C57.3188 219.552 57.7173 219.339 58.1899 219.081C58.6627 218.823 59.1581 218.565 59.2909 218.507L59.5323 218.402L59.8079 219.965C60.0145 221.137 60.0564 221.542 59.9749 221.582ZM57.823 229.396C57.3697 229.017 57.0682 229.126 56.2364 229.97C55.2732 230.948 55.1502 231.421 55.7503 231.842C56.23 232.177 56.4902 232.081 57.2746 231.28C57.6447 230.901 58.0047 230.493 58.0744 230.372C58.2553 230.058 58.1567 229.675 57.823 229.396ZM56.0342 223.834C55.7549 223.99 54.3495 225.085 53.7391 225.621L53.3913 225.927L53.1362 224.478L52.8811 223.029L53.5924 222.374C53.9837 222.015 54.6302 221.461 55.0294 221.144L55.755 220.569L56.0296 222.126L56.3041 223.683L56.0342 223.834ZM60.9249 253.08C60.8624 252.982 60.4008 252.649 59.899 252.339C59.1277 251.864 58.9366 251.786 58.6627 251.834C58.0661 251.939 57.8082 252.659 58.192 253.148C58.2598 253.234 58.6963 253.537 59.1621 253.821C59.8606 254.247 60.0643 254.328 60.3243 254.282C60.8818 254.184 61.2099 253.527 60.9249 253.08ZM54.0897 234.672C53.4022 234.191 52.9398 234.592 52.4565 236.091C52.1636 236.999 52.1933 237.221 52.6499 237.541C52.9672 237.763 53.3709 237.711 53.6372 237.413C53.8953 237.125 54.498 235.421 54.4461 235.126C54.4222 234.99 54.273 234.8 54.0897 234.672ZM56.0183 248.897C55.7695 248.387 54.8762 247.215 54.6902 247.154C54.086 246.956 53.4975 247.438 53.6043 248.044C53.6775 248.459 54.6966 249.926 54.9752 250.017C55.7041 250.256 56.3455 249.567 56.0183 248.897ZM51.6094 227.751C51.4255 227.96 50.971 228.519 50.5996 228.993L49.9243 229.854L49.7148 228.666L49.5053 227.478L50.0842 226.536C50.4027 226.018 50.843 225.379 51.0628 225.116L51.4624 224.638L51.7032 226.004L51.9439 227.369L51.6094 227.751ZM52.9438 241.022C52.5475 240.744 52.1554 240.793 51.8579 241.157C51.6799 241.374 51.6517 241.523 51.6861 242.061C51.7603 243.219 51.8767 243.716 52.1254 243.939C52.5792 244.345 53.3355 244.104 53.447 243.518C53.4757 243.367 53.446 242.794 53.381 242.245L53.2628 241.245L52.9438 241.022ZM48.1124 233.15C47.84 233.761 47.525 234.544 47.4125 234.889C47.3001 235.235 47.1899 235.505 47.1675 235.49C47.1452 235.474 47.1882 234.952 47.263 234.331C47.4024 233.173 47.8007 231.42 48.106 230.622L48.2774 230.174L48.4427 231.106L48.6079 232.038L48.1124 233.15Z" fill="#7D27EB"/>
<path fill-rule="evenodd" clip-rule="evenodd" d="M76.7608 236.028C76.3331 235.78 75.6766 235.404 75.3021 235.192C74.9276 234.98 74.2566 234.596 73.8111 234.339L73.001 233.871L70.6886 234.279C68.4484 234.674 68.3727 234.691 68.2586 234.823C68.1428 234.956 68.1454 234.984 68.4159 236.518L68.6908 238.078L73.1179 237.297C75.5528 236.868 77.5435 236.508 77.5417 236.498C77.5399 236.488 77.1885 236.277 76.7608 236.028ZM67.1256 235.727C66.4378 236.609 64.7934 238.756 64.5443 239.098L64.3263 239.397L64.6759 241.379L65.0255 243.362L65.2034 243.469L65.3812 243.577L67.1738 243.261L68.9663 242.945L68.2764 239.041L67.5864 235.137L67.1256 235.727Z" fill="#7D27EB"/>
<path fill-rule="evenodd" clip-rule="evenodd" d="M72.5847 238.097L72.4061 237.97L70.6267 238.284L68.8472 238.597L69.5235 242.518L70.1996 246.438L70.4941 246.047C71.1284 245.205 72.4573 243.471 72.9458 242.847L73.4599 242.191L73.1116 240.207L72.7633 238.224L72.5847 238.097ZM64.6125 244.233L60.1386 245.023L60.6059 245.286C61.5417 245.813 63.5312 246.948 64.1668 247.317L64.8184 247.695L67.0977 247.295L69.3772 246.894L69.5076 246.732L69.638 246.571L69.3622 245.006L69.0864 243.442L64.6125 244.233Z" fill="#7D27EB"/>
<path fill-rule="evenodd" clip-rule="evenodd" d="M329.589 360.844C336.31 355.789 341.027 348.695 343.288 340.24C345.883 330.54 345.024 320.012 340.815 309.903C339.66 307.129 336.683 301.978 334.813 299.517C331.23 294.803 327.133 290.956 322.449 287.905C308.896 279.078 292.759 278.44 280.576 286.25C277.708 288.089 278.009 287.915 274.983 289.48C262.845 295.755 255.427 308.819 255.389 323.991C255.355 337.709 261.588 351.43 272.11 360.795C282.478 370.023 295.7 373.945 307.96 371.429C312.383 370.521 315.87 369.112 319.584 366.731C322.295 364.993 321.849 365.253 325.616 363.215C327.221 362.347 329.009 361.28 329.589 360.844ZM313.111 366.635C302.463 371.053 289.797 369.428 279.121 362.274C273.79 358.702 270.056 354.947 266.293 349.374C263.551 345.312 261.244 340.203 259.991 335.418C258.057 328.033 258.01 320.531 259.854 313.538C264.78 294.86 282.492 284.736 301.251 289.876C315.842 293.873 328.098 306.686 332.156 322.184C336.339 338.161 331.634 353.855 319.995 362.744C318.496 363.889 315.087 365.816 313.111 366.635ZM330.752 355.528C330.831 355.377 331.272 354.584 331.732 353.765C332.544 352.32 332.601 352.259 333.723 351.628L334.877 350.978L334.266 351.84C333.015 353.604 330.235 356.523 330.752 355.528ZM335.407 344.39L336.197 341.314L338.299 340.107L340.4 338.899L339.867 340.77C339.574 341.798 339.07 343.266 338.747 344.031L338.16 345.422L336.389 346.444L334.617 347.467L335.407 344.39ZM314.082 358.304C314.18 358.12 314.224 357.682 314.179 357.332C314.108 356.785 314.025 356.639 313.596 356.312C312.947 355.817 312.407 355.916 310.5 356.876C308.424 357.922 308.063 358.472 308.714 359.6C309.08 360.233 309.37 360.413 309.979 360.384C310.707 360.351 313.837 358.763 314.082 358.304ZM320.755 352.7C321.39 352.092 323.035 349.524 323.023 349.158C322.985 347.974 321.76 347.231 320.78 347.797C320.196 348.133 318.223 350.835 318.12 351.438C317.9 352.724 319.786 353.627 320.755 352.7ZM302.511 361.45C302.699 360.931 302.681 360.67 302.426 360.228C302.247 359.919 301.952 359.605 301.771 359.53C301.383 359.371 298.017 359.364 297.465 359.522C296.899 359.683 296.433 360.539 296.557 361.188C296.78 362.362 297.814 362.677 300.858 362.5C301.926 362.438 302.221 362.251 302.511 361.45ZM336.712 335.524C336.751 334.476 336.76 332.886 336.731 331.989L336.679 330.359L339.134 328.939C340.484 328.158 341.61 327.554 341.635 327.598C341.734 327.769 341.603 331.453 341.441 333.061L341.27 334.757L338.956 336.093L336.642 337.429L336.712 335.524ZM326.327 341.663C326.818 341.015 327.463 337.612 327.185 337.131C326.697 336.285 325.816 336.036 324.983 336.508C324.477 336.794 324.39 337.002 323.973 338.897C323.58 340.687 323.56 341.046 323.83 341.514C324.398 342.497 325.638 342.571 326.327 341.663ZM290.614 359.478C290.888 358.454 290.418 357.943 288.382 357.051C286.378 356.174 285.728 356.139 285.163 356.874C284.733 357.435 284.661 358.085 284.969 358.619C285.214 359.042 287.781 360.327 288.828 360.55C289.618 360.718 290.409 360.244 290.614 359.478ZM336.304 326.68C336.268 326.557 336.051 325.503 335.822 324.338L335.405 322.221L337.995 320.725L340.586 319.229L340.911 321.107C341.09 322.14 341.27 323.216 341.311 323.497L341.386 324.008L338.877 325.456C336.895 326.601 336.354 326.858 336.304 326.68ZM327.378 329.122C327.585 328.346 327.182 325.55 326.755 324.802C326.183 323.799 324.48 323.974 324.088 325.076C324.001 325.32 324.062 326.388 324.223 327.45C324.483 329.169 324.565 329.425 324.975 329.791C325.455 330.219 326.305 330.296 326.882 329.963C327.058 329.861 327.282 329.483 327.378 329.122ZM280.118 353.414C280.505 352.585 280.299 352.173 278.772 350.717C278 349.981 277.14 349.307 276.861 349.218C276.13 348.985 275.238 349.533 275.019 350.349C274.875 350.888 274.916 351.047 275.346 351.621C276.175 352.728 278.011 354.304 278.524 354.348C279.127 354.401 279.858 353.973 280.118 353.414ZM334.351 318.647C334.279 318.384 333.923 317.387 333.56 316.433L332.901 314.697L335.495 313.144L338.09 311.59L338.45 312.446C338.648 312.916 339.024 313.925 339.287 314.688L339.765 316.075L337.124 317.6L334.482 319.125L334.351 318.647ZM324.016 317.349C324.181 316.736 324.132 316.557 323.389 315.041C322.509 313.248 322.11 312.799 321.329 312.731C320.574 312.665 320.007 313.091 319.794 313.884C319.634 314.483 319.674 314.696 320.081 315.402C320.342 315.853 320.751 316.662 320.991 317.198C321.408 318.133 321.456 318.182 322.155 318.37C323.113 318.626 323.771 318.266 324.016 317.349ZM331.1 310.971C330.858 310.429 330.371 309.484 330.016 308.87L329.373 307.755L332.004 306.291L334.636 304.827L335.209 305.705C335.524 306.189 336.021 307.103 336.314 307.738L336.847 308.891L334.193 310.424L331.539 311.956L331.1 310.971ZM272.383 343.713C272.485 343.143 272.395 342.858 271.647 341.375C270.689 339.475 270.319 339.107 269.434 339.175C268.728 339.229 268.14 339.814 268.057 340.547C268.007 340.986 268.178 341.417 268.989 342.895L269.982 344.705L270.618 344.826C271.523 344.999 272.234 344.551 272.383 343.713ZM326.477 303.742C325.883 302.949 325.25 302.135 325.071 301.934L324.746 301.568L327.383 300.045L330.021 298.522L331.257 300.076C331.936 300.931 332.56 301.75 332.643 301.896C332.781 302.138 332.568 302.292 330.176 303.673L327.558 305.184L326.477 303.742ZM316.824 308.014C317.217 307.545 317.321 306.781 317.056 306.321C316.742 305.777 315.082 304.111 314.351 303.606C313.442 302.978 312.248 303.449 311.998 304.533C311.845 305.197 312.138 305.668 313.575 307.072C315.126 308.587 316.107 308.872 316.824 308.014ZM267.89 332.985C268.226 332.549 268.235 332.004 267.938 330.145C267.649 328.336 267.364 327.78 266.607 327.552C265.966 327.358 265.08 327.784 264.778 328.431C264.517 328.99 265.068 332.619 265.478 333.042C266.109 333.693 267.368 333.663 267.89 332.985ZM322.431 299.024C321.812 298.432 319.471 296.267 319.302 296.13C319.127 295.988 319.502 295.726 321.68 294.469C323.103 293.648 324.277 292.995 324.291 293.019C324.305 293.042 324.936 293.608 325.693 294.275C326.451 294.942 327.224 295.65 327.411 295.847L327.751 296.205L325.173 297.693C323.241 298.808 322.555 299.141 322.431 299.024ZM307.283 300.244C307.661 299.201 307.276 298.74 305.255 297.816C302.915 296.746 302.001 296.833 301.646 298.159C301.362 299.22 301.698 299.617 303.613 300.485C304.518 300.894 305.468 301.267 305.726 301.312C306.394 301.43 307.006 301.01 307.283 300.244ZM315.937 293.525C315.482 293.133 312.653 291.358 311.315 290.627L310.553 290.21L312.943 288.832L315.333 287.453L316.942 288.286C317.827 288.745 319.217 289.529 320.031 290.029L321.51 290.939L318.943 292.421L316.376 293.903L315.937 293.525ZM267.543 320.897C267.676 320.724 267.967 319.697 268.191 318.614C268.534 316.95 268.549 316.563 268.288 316.112C267.72 315.128 266.286 315.136 265.672 316.125C265.563 316.3 265.309 317.263 265.107 318.266C264.804 319.77 264.792 320.181 265.04 320.61C265.571 321.529 266.938 321.686 267.543 320.897ZM295.594 297.049C296.001 295.529 294.997 294.972 292.047 295.081C290.259 295.147 289.886 295.342 289.616 296.352C289.428 297.053 289.779 297.731 290.474 298.009C291.148 298.279 294.537 298.248 295.022 297.968C295.246 297.839 295.485 297.454 295.594 297.049ZM271.767 309.569C272.506 308.804 273.999 306.478 273.987 306.111C273.949 304.92 272.721 304.192 271.722 304.769C271.038 305.164 269.107 307.9 269.124 308.45C269.171 309.887 270.796 310.576 271.767 309.569ZM306.198 288.24C305.711 288.051 304.434 287.608 303.362 287.258L301.411 286.62L303.37 285.489L305.33 284.358L307.36 284.774C308.477 285.003 309.885 285.369 310.489 285.588L311.587 285.985L309.336 287.285L307.085 288.585L306.198 288.24ZM283.671 299.102C283.906 298.226 283.569 297.566 282.737 297.275C282.24 297.101 281.96 297.147 281.033 297.553C279.041 298.426 278.239 298.95 278.007 299.531C277.582 300.591 278.492 301.769 279.596 301.589C279.88 301.543 280.87 301.123 281.797 300.656L283.482 299.807L283.671 299.102ZM294.443 285.541C293.191 285.453 291.61 285.4 290.929 285.424C290.248 285.447 289.701 285.426 289.714 285.377C289.727 285.328 290.674 285.069 291.818 284.802C293.947 284.305 297.29 283.883 298.892 283.909L299.791 283.924L298.255 284.813L296.719 285.701L294.443 285.541Z" fill="#A263F1"/>
<path fill-rule="evenodd" clip-rule="evenodd" d="M307.742 337.864C307.905 336.952 308.147 335.554 308.281 334.758C308.414 333.962 308.66 332.534 308.827 331.584L309.132 329.857L306.931 326.044C304.798 322.35 304.72 322.228 304.414 322.111C304.104 321.993 304.057 322.015 301.528 323.475L298.956 324.96L303.171 332.26C305.489 336.274 307.399 339.551 307.416 339.542C307.432 339.532 307.579 338.777 307.742 337.864ZM302.094 320.695C300.1 320.048 295.262 318.528 294.5 318.308L293.834 318.116L290.564 320.003L287.295 321.891L287.22 322.273L287.145 322.655L288.852 325.611L290.558 328.566L296.994 324.847L303.43 321.128L302.094 320.695Z" fill="#A263F1"/>
<path fill-rule="evenodd" clip-rule="evenodd" d="M301.42 331.833L301.529 331.437L299.835 328.503L298.141 325.569L291.668 329.274L285.194 332.98L286.071 333.248C287.962 333.826 291.87 335.055 293.282 335.515L294.768 336L298.039 334.115L301.311 332.229L301.42 331.833ZM285.497 321.721L281.235 314.345L281.071 315.338C280.742 317.325 280.019 321.558 279.776 322.914L279.528 324.304L281.696 328.064L283.863 331.823L284.232 331.949L284.6 332.075L287.179 330.586L289.758 329.097L285.497 321.721Z" fill="#A263F1"/>
<path fill-rule="evenodd" clip-rule="evenodd" d="M35.5536 375.94C30.0919 374.673 24.4477 375.305 19.1602 377.773C13.0947 380.605 8.08615 385.555 4.7271 392.036C3.80549 393.815 2.45073 397.542 1.99541 399.552C1.12329 403.402 0.913782 407.143 1.36305 410.842C2.66275 421.546 9.25252 430.061 18.4619 432.936C20.6298 433.612 20.4122 433.533 22.5079 434.408C30.914 437.918 40.7648 436.108 48.5291 429.626C55.5499 423.765 59.8859 414.701 60.1594 405.315C60.4291 396.065 56.7661 387.632 50.2274 382.449C47.8686 380.58 45.6547 379.403 42.8473 378.526C40.7976 377.887 41.1216 378.003 38.4667 376.952C37.3356 376.505 36.0247 376.049 35.5536 375.94ZM45.5719 381.873C52.3915 385.418 56.9891 392.583 57.9106 401.101C58.3708 405.354 58.0531 408.87 56.8194 413.18C55.9202 416.321 54.2996 419.689 52.3927 422.379C49.45 426.531 45.6389 429.77 41.2774 431.825C29.6278 437.313 16.8678 432.606 11.4535 420.823C7.24256 411.659 8.53397 399.91 14.7097 391.196C21.0765 382.212 31.1074 377.89 40.6351 380.025C41.8618 380.3 44.3065 381.215 45.5719 381.873ZM32.3402 377.624C32.229 377.648 31.635 377.763 31.02 377.879C29.9339 378.083 29.8786 378.08 29.0753 377.778L28.2486 377.467L28.9505 377.41C30.3879 377.292 33.0695 377.461 32.3402 377.624ZM24.6572 380.019L22.7477 380.934L21.2306 380.378L19.7134 379.822L20.8968 379.293C21.5477 379.002 22.5132 378.63 23.0423 378.468L24.0043 378.172L25.2855 378.638L26.5666 379.104L24.6572 380.019ZM40.901 384.948C40.7649 384.976 40.523 385.142 40.3632 385.315C40.1144 385.585 40.0755 385.69 40.0924 386.049C40.1177 386.593 40.3995 386.826 41.7072 387.389C43.1309 388.001 43.5662 387.949 43.8631 387.133C44.0298 386.676 43.9974 386.45 43.7219 386.152C43.3928 385.794 41.2409 384.876 40.901 384.948ZM35.18 383.941C34.597 383.877 32.5804 384.138 32.3985 384.301C31.8106 384.827 31.9561 385.772 32.665 386.03C33.087 386.183 35.3125 386.033 35.6645 385.828C36.415 385.389 36.0683 384.039 35.18 383.941ZM47.4663 389.508C47.1206 389.635 46.9953 389.756 46.8788 390.076C46.7973 390.3 46.7633 390.585 46.8031 390.709C46.8882 390.976 48.327 392.697 48.6438 392.912C48.9686 393.132 49.6055 393.003 49.8842 392.662C50.388 392.045 50.1061 391.382 48.7114 389.903C48.2219 389.384 47.9996 389.314 47.4663 389.508ZM19.57 383.152C19.0182 383.581 18.2023 384.259 17.7567 384.657L16.9466 385.383L15.1691 384.737C14.1915 384.382 13.4011 384.066 13.4126 384.034C13.4576 383.911 15.3954 382.399 16.286 381.793L17.2255 381.153L18.8993 381.762L20.573 382.372L19.57 383.152ZM27.1557 385.825C26.6141 385.852 24.5999 386.981 24.4732 387.329C24.2506 387.941 24.5007 388.497 25.0989 388.721C25.4614 388.856 25.6051 388.812 26.7513 388.213C27.8345 387.646 28.0263 387.502 28.1495 387.164C28.4082 386.453 27.9144 385.788 27.1557 385.825ZM51.5574 396.43C50.9168 396.728 50.8574 397.187 51.2748 398.609C51.6855 400.009 51.9458 400.356 52.5636 400.329C53.0341 400.308 53.3971 400.067 53.5377 399.68C53.6492 399.374 53.2051 397.513 52.8701 396.882C52.6176 396.407 52.0364 396.206 51.5574 396.43ZM15.2286 387.151C15.1807 387.222 14.7354 387.784 14.239 388.4L13.3363 389.521L11.4624 388.839L9.58832 388.157L10.4081 387.186C10.859 386.652 11.3309 386.099 11.4568 385.957L11.6856 385.7L13.5007 386.361C14.9347 386.883 15.2974 387.049 15.2286 387.151ZM20.3006 390.662C19.8153 390.889 18.5604 392.293 18.3613 392.832C18.0944 393.554 18.9133 394.349 19.6439 394.077C19.8057 394.016 20.3254 393.527 20.7988 392.99C21.5652 392.121 21.6607 391.969 21.6718 391.603C21.6849 391.175 21.3597 390.707 20.9427 390.556C20.8148 390.509 20.5258 390.557 20.3006 390.662ZM52.9585 404.388C52.3689 404.546 52.2466 404.828 52.1578 406.232C52.1129 406.941 52.1368 407.669 52.211 407.85C52.4058 408.323 53.0673 408.544 53.5779 408.306C53.9152 408.148 53.9787 408.06 54.0877 407.593C54.2977 406.696 54.3156 405.083 54.1187 404.802C53.8874 404.472 53.3552 404.282 52.9585 404.388ZM11.9626 391.59C11.8594 391.74 11.503 392.349 11.1708 392.943L10.5669 394.024L8.66186 393.364L6.75677 392.705L7.0394 392.154C7.19488 391.852 7.54876 391.227 7.82578 390.766L8.32953 389.928L10.24 390.623L12.1506 391.318L11.9626 391.59ZM15.7288 397.424C15.3448 397.603 15.2746 397.704 14.8189 398.734C14.2799 399.951 14.2222 400.348 14.5216 400.775C14.8114 401.189 15.2723 401.297 15.7681 401.065C16.1429 400.891 16.2344 400.779 16.4202 400.268C16.5391 399.942 16.7767 399.386 16.9482 399.034C17.2471 398.42 17.2512 398.375 17.0473 397.937C16.7678 397.338 16.3019 397.157 15.7288 397.424ZM9.43572 396.54C9.2626 396.896 8.98877 397.55 8.8273 397.993L8.53369 398.8L6.65825 398.084L4.78285 397.367L4.98601 396.698C5.09778 396.33 5.35158 395.684 5.55011 395.263L5.91094 394.496L7.83082 395.195L9.75069 395.894L9.43572 396.54ZM51.3186 412.496C50.984 412.688 50.877 412.856 50.4401 413.873C49.8802 415.177 49.8509 415.523 50.2647 415.946C50.5951 416.284 51.1456 416.333 51.5556 416.062C51.8012 415.899 51.9481 415.627 52.3553 414.58L52.854 413.297L52.6437 412.92C52.3442 412.384 51.8103 412.213 51.3186 412.496ZM7.72514 401.998C7.57482 402.642 7.4303 403.314 7.40413 403.491L7.35657 403.815L5.44851 403.12L3.54044 402.426L3.8046 401.129C3.94981 400.415 4.10066 399.746 4.13961 399.641C4.20445 399.466 4.37416 399.509 6.10453 400.139L7.99849 400.829L7.72514 401.998ZM14.0434 405.098C13.6353 405.098 13.2004 405.372 13.0793 405.705C12.936 406.099 12.7965 407.66 12.8519 408.249C12.9211 408.983 13.6726 409.391 14.3337 409.054C14.7382 408.847 14.8536 408.496 14.9547 407.161C15.0639 405.719 14.7887 405.096 14.0434 405.098ZM47.7652 419.388C47.3987 419.403 47.1168 419.632 46.2942 420.58C45.4945 421.502 45.3328 421.887 45.5404 422.371C45.7165 422.781 46.3137 423.051 46.7732 422.928C47.1705 422.822 48.7876 420.985 48.8281 420.595C48.8903 419.994 48.3352 419.363 47.7652 419.388ZM7.04914 406.087C7.01219 406.656 6.90987 408.78 6.91236 408.925C6.91504 409.075 6.62024 408.995 5.04482 408.422C4.01594 408.048 3.17925 407.727 3.18542 407.71C3.19162 407.693 3.20999 407.129 3.22617 406.456C3.24238 405.783 3.27235 405.085 3.29283 404.905L3.33 404.578L5.19444 405.257C6.59183 405.765 7.05647 405.973 7.04914 406.087ZM14.1634 413.3C13.4693 413.554 13.3989 413.948 13.7929 415.376C14.2492 417.03 14.685 417.459 15.5149 417.072C16.1783 416.763 16.237 416.421 15.8593 415.071C15.6808 414.433 15.4637 413.788 15.3764 413.638C15.15 413.246 14.6741 413.113 14.1634 413.3ZM7.02383 411.76C7.01842 412.16 7.32493 414.365 7.52451 415.362L7.63814 415.929L5.90994 415.3L4.18163 414.67L3.91775 413.491C3.77272 412.843 3.57766 411.797 3.48436 411.167L3.31484 410.021L5.17194 410.697L7.02905 411.373L7.02383 411.76ZM41.7406 424.745C41.5955 424.751 40.9461 425.042 40.2974 425.392C39.3005 425.93 39.0965 426.088 38.9776 426.415C38.7186 427.126 39.3369 427.855 40.1056 427.745C40.2414 427.726 40.8423 427.443 41.441 427.116C42.3389 426.626 42.5537 426.456 42.6666 426.146C42.9086 425.481 42.4028 424.715 41.7406 424.745ZM17.5412 420.639C16.5904 421.082 16.736 421.834 18.0561 423.293C18.8559 424.178 19.1155 424.285 19.747 423.99C20.1858 423.786 20.3815 423.316 20.2256 422.842C20.0746 422.382 18.6067 420.665 18.2556 420.537C18.0936 420.478 17.7948 420.521 17.5412 420.639ZM34.1456 427.442C33.4381 427.392 31.6104 427.626 31.4282 427.79C30.8362 428.32 30.9906 429.259 31.7132 429.522C32.2083 429.702 34.4333 429.515 34.7063 429.271C35.4206 428.631 35.0758 427.506 34.1456 427.442ZM8.49826 418.998C8.61039 419.328 8.93159 420.169 9.21214 420.867L9.72229 422.137L8.3051 421.621L6.88792 421.105L6.23011 419.89C5.86847 419.221 5.45208 418.345 5.30485 417.943L5.03739 417.212L6.66585 417.805L8.2943 418.397L8.49826 418.998ZM23.6989 425.848C23.1507 426.103 22.9583 426.558 23.166 427.108C23.2901 427.436 23.4336 427.56 24.038 427.859C25.3378 428.502 25.9489 428.687 26.3451 428.557C27.0683 428.319 27.28 427.35 26.7151 426.863C26.5702 426.738 25.9314 426.412 25.2957 426.139L24.1401 425.642L23.6989 425.848ZM12.1573 426.158C12.6487 426.835 13.2994 427.665 13.6033 428.003C13.9073 428.341 14.1307 428.629 14.0998 428.643C14.0689 428.658 13.5312 428.285 12.9048 427.815C11.7383 426.941 10.0906 425.415 9.41707 424.585L9.03935 424.12L10.1516 424.523L11.264 424.927L12.1573 426.158Z" fill="#D2B4F8"/>
<path fill-rule="evenodd" clip-rule="evenodd" d="M33.1797 396.944C32.6437 397.252 31.826 397.727 31.3626 398C30.8991 398.273 30.0642 398.76 29.5073 399.081L28.4947 399.666L27.4908 402.424C26.5183 405.096 26.4893 405.189 26.5606 405.394C26.633 405.603 26.6649 405.618 28.4943 406.284L30.3544 406.961L32.2763 401.681C33.3333 398.776 34.1883 396.397 34.1762 396.392C34.1642 396.388 33.7157 396.636 33.1797 396.944ZM26.8319 407.186C27.3562 408.482 28.6527 411.604 28.867 412.087L29.0544 412.51L31.4192 413.371L33.7841 414.231L34.0114 414.106L34.2387 413.98L35.0169 411.842L35.7951 409.704L31.1378 408.011L26.4805 406.318L26.8319 407.186Z" fill="#D2B4F8"/>
<path fill-rule="evenodd" clip-rule="evenodd" d="M32.8087 402.757L32.5595 402.871L31.787 404.994L31.0145 407.116L35.6812 408.835L40.3478 410.553L40.1086 409.99C39.5934 408.777 38.5463 406.254 38.1767 405.336L37.7876 404.369L35.4227 403.506L33.0578 402.644L32.8087 402.757ZM34.4682 415.223L32.5274 420.56L33.1045 420.218C34.2603 419.535 36.7321 418.09 37.5285 417.633L38.3451 417.164L39.3361 414.446L40.3271 411.728L40.2336 411.486L40.1401 411.244L38.2745 410.564L36.4089 409.885L34.4682 415.223Z" fill="#D2B4F8"/>
<defs>
<linearGradient id="paint0_linear" x1="-5.4834" y1="460.612" x2="382" y2="460.612" gradientUnits="userSpaceOnUse">
<stop stop-color="#6600E8"/>
<stop offset="1" stop-color="white"/>
</linearGradient>
</defs>
</svg>
