<svg width="203" height="30" viewBox="0 0 203 30" fill="none" xmlns="http://www.w3.org/2000/svg">
<path d="M11.1034 30C8.86872 30 6.91341 29.6508 5.23743 28.9525C3.56145 28.2263 2.26257 27.2067 1.34078 25.8939C0.446927 24.5531 0 23.0028 0 21.243V20.3212C0 20.1816 0.0418995 20.0698 0.125698 19.986C0.23743 19.8743 0.363128 19.8184 0.502793 19.8184H5.27933C5.419 19.8184 5.53073 19.8743 5.61453 19.986C5.72626 20.0698 5.78212 20.1816 5.78212 20.3212V20.9497C5.78212 22.067 6.29888 23.0168 7.3324 23.7989C8.36592 24.5531 9.76257 24.9302 11.5223 24.9302C13.0028 24.9302 14.1061 24.6229 14.8324 24.0084C15.5587 23.3659 15.9218 22.5838 15.9218 21.662C15.9218 20.9916 15.6983 20.433 15.2514 19.986C14.8045 19.5112 14.1899 19.1061 13.4078 18.7709C12.6536 18.4078 11.4385 17.919 9.76257 17.3045C7.89106 16.662 6.29888 16.0056 4.98603 15.3352C3.70112 14.6648 2.61173 13.757 1.71788 12.6117C0.851955 11.4385 0.418995 10 0.418995 8.29609C0.418995 6.62011 0.851955 5.15363 1.71788 3.89665C2.5838 2.63966 3.78492 1.67598 5.32123 1.00559C6.85754 0.335196 8.63129 0 10.6425 0C12.7654 0 14.6508 0.377094 16.2989 1.13128C17.9749 1.88547 19.2737 2.94693 20.1955 4.31564C21.1453 5.65642 21.6201 7.22067 21.6201 9.00838V9.63687C21.6201 9.77654 21.5642 9.90223 21.4525 10.014C21.3687 10.0978 21.257 10.1397 21.1173 10.1397H16.2989C16.1592 10.1397 16.0335 10.0978 15.9218 10.014C15.838 9.90223 15.7961 9.77654 15.7961 9.63687V9.30167C15.7961 8.12849 15.3073 7.13687 14.3296 6.32682C13.3799 5.48883 12.067 5.06983 10.3911 5.06983C9.07821 5.06983 8.04469 5.34916 7.2905 5.90782C6.56425 6.46648 6.20112 7.23464 6.20112 8.21229C6.20112 8.91061 6.41062 9.49721 6.82961 9.97207C7.27654 10.4469 7.91899 10.8799 8.75698 11.271C9.62291 11.6341 10.9497 12.1369 12.7374 12.7793C14.7207 13.5056 16.271 14.148 17.3883 14.7067C18.5335 15.2654 19.5531 16.1034 20.4469 17.2207C21.3687 18.3101 21.8296 19.7346 21.8296 21.4944C21.8296 24.1201 20.8659 26.2011 18.9386 27.7374C17.0112 29.2458 14.3994 30 11.1034 30Z" fill="#F6F6F6"/>
<path d="M45.8763 0.335194C46.016 0.335194 46.1277 0.39106 46.2115 0.502793C46.3232 0.586592 46.3791 0.698323 46.3791 0.837988V4.94413C46.3791 5.0838 46.3232 5.2095 46.2115 5.32123C46.1277 5.40503 46.016 5.44693 45.8763 5.44693H38.3763C38.2366 5.44693 38.1668 5.51676 38.1668 5.65642V29.162C38.1668 29.3017 38.1109 29.4274 37.9992 29.5391C37.9154 29.6229 37.8037 29.6648 37.664 29.6648H32.7618C32.6221 29.6648 32.4964 29.6229 32.3847 29.5391C32.3009 29.4274 32.259 29.3017 32.259 29.162V5.65642C32.259 5.51676 32.1891 5.44693 32.0495 5.44693H24.759C24.6193 5.44693 24.4936 5.40503 24.3819 5.32123C24.2981 5.2095 24.2562 5.0838 24.2562 4.94413V0.837988C24.2562 0.698323 24.2981 0.586592 24.3819 0.502793C24.4936 0.39106 24.6193 0.335194 24.759 0.335194H45.8763Z" fill="#F6F6F6"/>
<path d="M66.2394 29.8327C65.9601 29.8327 65.7785 29.693 65.6947 29.4137L62.6137 20.3215L55.2141 20.3683L52.4964 29.4137C52.4126 29.693 52.231 29.8327 51.9517 29.8327H46.6305C46.4629 29.8327 46.3372 29.7908 46.2534 29.707C46.1696 29.5953 46.1556 29.4416 46.2115 29.2461L55.2618 0.922078C55.3456 0.642748 55.5271 0.503084 55.8065 0.503084H62.3847C62.664 0.503084 62.8456 0.642748 62.9294 0.922078L71.9796 29.2461C72.0076 29.302 72.0215 29.3718 72.0215 29.4556C72.0215 29.707 71.8679 29.8327 71.5606 29.8327H66.2394ZM55.2141 20.3683L62.6137 20.3215L59.1584 7.87739C59.1305 7.76566 59.0886 7.72376 59.0327 7.75169C58.9769 7.75169 58.935 7.79359 58.907 7.87739L55.2141 20.3683Z" fill="#F6F6F6"/>
<path d="M92.4017 0.837988C92.4017 0.698323 92.4436 0.586592 92.5274 0.502793C92.6391 0.39106 92.7648 0.335194 92.9045 0.335194H97.8067C97.9464 0.335194 98.0581 0.39106 98.1419 0.502793C98.2536 0.586592 98.3095 0.698323 98.3095 0.837988V29.162C98.3095 29.3017 98.2536 29.4274 98.1419 29.5391C98.0581 29.6229 97.9464 29.6648 97.8067 29.6648H93.0721C92.7928 29.6648 92.5972 29.5531 92.4855 29.3296L81.6335 11.3966C81.5777 11.3128 81.5218 11.2849 81.4659 11.3128C81.4101 11.3128 81.3821 11.3687 81.3821 11.4804L81.4659 29.162C81.4659 29.3017 81.4101 29.4274 81.2983 29.5391C81.2145 29.6229 81.1028 29.6648 80.9632 29.6648H76.0609C75.9212 29.6648 75.7955 29.6229 75.6838 29.5391C75.6 29.4274 75.5581 29.3017 75.5581 29.162V0.837988C75.5581 0.698323 75.6 0.586592 75.6838 0.502793C75.7955 0.39106 75.9212 0.335194 76.0609 0.335194H80.7955C81.0749 0.335194 81.2704 0.446925 81.3821 0.67039L92.1922 18.5196C92.2481 18.6034 92.3039 18.6453 92.3598 18.6453C92.4157 18.6173 92.4436 18.5475 92.4436 18.4358L92.4017 0.837988Z" fill="#F6F6F6"/>
<path d="M103.68 29.6648C103.541 29.6648 103.415 29.6229 103.303 29.5391C103.219 29.4274 103.177 29.3017 103.177 29.162V0.837988C103.177 0.698323 103.219 0.586592 103.303 0.502793C103.415 0.39106 103.541 0.335194 103.68 0.335194H114.155C116.25 0.335194 118.08 0.71229 119.644 1.46648C121.236 2.19274 122.465 3.22626 123.331 4.56704C124.197 5.90782 124.63 7.4581 124.63 9.21788V20.7821C124.63 22.5419 124.197 24.0922 123.331 25.433C122.465 26.7737 121.236 27.8212 119.644 28.5754C118.08 29.3017 116.25 29.6648 114.155 29.6648H103.68ZM109.085 24.3855C109.085 24.5251 109.155 24.595 109.295 24.595H114.365C115.649 24.595 116.683 24.162 117.465 23.2961C118.275 22.4302 118.694 21.2709 118.722 19.8184V10.1816C118.722 8.72905 118.317 7.56983 117.507 6.70391C116.725 5.83799 115.663 5.40503 114.323 5.40503H109.295C109.155 5.40503 109.085 5.47486 109.085 5.61452V24.3855Z" fill="#F6F6F6"/>
<path d="M171.682 29.6648C171.403 29.6648 171.207 29.5391 171.095 29.2877L165.858 17.6816C165.802 17.5698 165.718 17.514 165.607 17.514H161.71C161.57 17.514 161.5 17.5838 161.5 17.7235V29.162C161.5 29.3017 161.445 29.4274 161.333 29.5391C161.249 29.6229 161.137 29.6648 160.998 29.6648H156.095C155.956 29.6648 155.83 29.6229 155.718 29.5391C155.634 29.4274 155.593 29.3017 155.593 29.162V0.837988C155.593 0.698323 155.634 0.586592 155.718 0.502793C155.83 0.39106 155.956 0.335194 156.095 0.335194H168.079C169.866 0.335194 171.431 0.698323 172.771 1.42458C174.14 2.15084 175.188 3.18436 175.914 4.52514C176.668 5.86592 177.045 7.4162 177.045 9.17598C177.045 11.0754 176.57 12.7095 175.621 14.0782C174.671 15.419 173.344 16.3687 171.64 16.9274C171.5 16.9832 171.459 17.081 171.514 17.2207L177.213 29.0782C177.269 29.1899 177.297 29.2737 177.297 29.3296C177.297 29.5531 177.143 29.6648 176.836 29.6648H171.682ZM161.71 5.40503C161.57 5.40503 161.5 5.47486 161.5 5.61452V12.7793C161.5 12.919 161.57 12.9888 161.71 12.9888H167.199C168.372 12.9888 169.322 12.6397 170.048 11.9413C170.802 11.243 171.179 10.3352 171.179 9.21788C171.179 8.10056 170.802 7.19274 170.048 6.49441C169.322 5.76815 168.372 5.40503 167.199 5.40503H161.71Z" fill="#F6F6F6"/>
<path d="M181.832 29.6648C181.693 29.6648 181.567 29.6229 181.455 29.5391C181.372 29.4274 181.33 29.3017 181.33 29.162V0.837988C181.33 0.698323 181.372 0.586592 181.455 0.502793C181.567 0.39106 181.693 0.335194 181.832 0.335194H192.307C194.402 0.335194 196.232 0.71229 197.796 1.46648C199.388 2.19274 200.617 3.22626 201.483 4.56704C202.349 5.90782 202.782 7.4581 202.782 9.21788V20.7821C202.782 22.5419 202.349 24.0922 201.483 25.433C200.617 26.7737 199.388 27.8212 197.796 28.5754C196.232 29.3017 194.402 29.6648 192.307 29.6648H181.832ZM187.237 24.3855C187.237 24.5251 187.307 24.595 187.447 24.595H192.517C193.802 24.595 194.835 24.162 195.617 23.2961C196.427 22.4302 196.846 21.2709 196.874 19.8184V10.1816C196.874 8.72905 196.469 7.56983 195.659 6.70391C194.877 5.83799 193.816 5.40503 192.475 5.40503H187.447C187.307 5.40503 187.237 5.47486 187.237 5.61452V24.3855Z" fill="#F6F6F6"/>
<path d="M146.852 29.6648C146.572 29.6648 146.391 29.5251 146.307 29.2458L143.226 20.1536L135.826 20.2004L133.109 29.2458C133.025 29.5251 132.843 29.6648 132.564 29.6648H127.243C127.075 29.6648 126.949 29.6229 126.866 29.5391C126.782 29.4274 126.768 29.2737 126.824 29.0782L135.874 0.754188C135.958 0.474859 136.139 0.335194 136.419 0.335194H142.997C143.276 0.335194 143.458 0.474859 143.542 0.754188L152.592 29.0782C152.62 29.1341 152.634 29.2039 152.634 29.2877C152.634 29.5391 152.48 29.6648 152.173 29.6648H146.852ZM135.826 20.2004L143.226 20.1536L139.771 7.7095C139.743 7.59777 139.701 7.55587 139.645 7.5838C139.589 7.5838 139.547 7.6257 139.519 7.7095L135.826 20.2004Z" fill="#F6F6F6"/>
</svg>
